{
.appVersion = "3343";
.formatVersion = 3;
DisplayStrings = (
A
);
axes = (
{
name = Sharp;
tag = SHRP;
}
);
date = "2024-05-08 04:35:24 +0000";
familyName = "Sharp Pixel";
fontMaster = (
{
axesValues = (
0
);
customParameters = (
{
name = typoAscender;
value = 800;
},
{
name = typoDescender;
value = -200;
},
{
name = typoLineGap;
value = 200;
},
{
name = winAscent;
value = 1000;
},
{
name = winDescent;
value = 200;
},
{
name = hheaAscender;
value = 1000;
},
{
name = hheaDescender;
value = -200;
},
{
name = strikeoutPosition;
value = 250;
},
{
name = strikeoutSize;
value = 50;
}
);
id = m01;
metricValues = (
{
pos = 800;
},
{
pos = 700;
},
{
pos = 500;
},
{
},
{
pos = -200;
},
{
}
);
name = Regular;
},
{
axesValues = (
100
);
customParameters = (
{
name = typoAscender;
value = 800;
},
{
name = typoDescender;
value = -200;
},
{
name = typoLineGap;
value = 200;
},
{
name = winAscent;
value = 1000;
},
{
name = winDescent;
value = 200;
},
{
name = hheaAscender;
value = 1000;
},
{
name = hheaDescender;
value = -200;
},
{
name = strikeoutPosition;
value = 250;
},
{
name = strikeoutSize;
value = 50;
}
);
id = "B9A38041-4120-40BB-8A36-A48F98B8CF9F";
metricValues = (
{
pos = 800;
},
{
pos = 700;
},
{
pos = 500;
},
{
},
{
pos = -200;
},
{
}
);
name = Sharp;
}
);
glyphs = (
{
glyphname = A;
lastChange = "2025-10-01 15:58:07 +0000";
layers = (
{
layerId = m01;
shapes = (
{
closed = 1;
nodes = (
(349,700,ls),
(317,700,o),
(300,694,o),
(300,677,qs),
(300,672,ls),
(301,645,o),
(291,601,o),
(272,600,qs),
(252,600,ls),
(223,600,o),
(200,591,o),
(200,569,qs),
(200,546,o),
(196,519,o),
(184,501,o),
(171,500,qs),
(152,500,ls),
(126,500,o),
(100,489,o),
(100,467,qs),
(100,449,ls),
(99,421,o),
(106,400,o),
(123,400,qs),
(180,400,ls),
(187,400,o),
(198,388,o),
(199,376,q),
(200,374,o),
(200,367,qs),
(200,326,ls),
(200,314,o),
(190,301,o),
(168,300,qs),
(152,300,ls),
(134,300,o),
(113,298,o),
(100,287,o),
(100,276,qs),
(100,36,ls),
(100,17,o),
(104,3,o),
(112,0,o),
(123,0,qs),
(179,0,ls),
(193,0,o),
(200,14,o),
(200,30,qs),
(200,267,ls),
(200,273,o),
(203,286,o),
(211,295,o),
(217,297,q),
(220,299,o),
(228,300,o),
(233,300,qs),
(557,300,ls),
(574,300,o),
(600,278,o),
(600,257,qs),
(600,38,l),
(600,31,ls),
(600,12,o),
(605,1,o),
(618,0,qs),
(679,0,ls),
(692,-1,o),
(700,14,o),
(700,34,qs),
(700,268,ls),
(700,286,o),
(685,300,o),
(663,300,qs),
(659,300,o),
(655,300,qs),
(628,299,o),
(600,315,o),
(600,347,qs),
(600,374,o),
(608,396,o),
(623,400,o),
(642,400,qs),
(663,400,ls),
(682,399,o),
(695,402,o),
(700,417,o),
(700,438,qs),
(700,450,ls),
(700,479,o),
(692,500,o),
(673,500,qs),
(648,500,o),
(622,503,o),
(600,521,o),
(600,542,qs),
(600,555,o),
(600,578,o),
(597,591,o),
(593,595,qs),
(587,600,o),
(569,600,qs),
(535,599,o),
(499,609,o),
(500,634,qs),
(501,671,o),
(495,700,o),
(478,700,qs)
);
},
{
closed = 1;
nodes = (
(479,601,ls),
(493,601,o),
(500,577,o),
(500,546,qs),
(500,540,o),
(500,533,qs),
(500,510,o),
(524,499,o),
(549,500,qs),
(556,500,o),
(568,501,o),
(575,500,qs),
(584,499,o),
(594,490,o),
(598,476,o),
(599,464,qs),
(600,444,ls),
(601,430,o),
(596,413,o),
(591,408,qs),
(586,404,o),
(571,400,o),
(560,400,qs),
(220,400,ls),
(204,400,o),
(198,434,o),
(200,459,qs),
(200,470,ls),
(200,480,o),
(209,493,o),
(217,497,qs),
(223,499,o),
(236,500,o),
(243,500,qs),
(269,499,o),
(292,501,o),
(299,509,o),
(300,519,qs),
(300,528,ls),
(300,543,o),
(300,557,o),
(300,572,qs),
(300,585,o),
(313,597,o),
(330,598,qs),
(338,599,o),
(362,599,qs)
);
}
);
width = 800;
},
{
layerId = "B9A38041-4120-40BB-8A36-A48F98B8CF9F";
shapes = (
{
closed = 1;
nodes = (
(399,700,l),
(391,687,o),
(375,662,o),
(369,653,qs),
(362,644,ls),
(343,622,o),
(291,595,o),
(269,596,qs),
(222,598,ls),
(204,600,o),
(197,598,o),
(200,593,qs),
(211,574,o),
(194,531,o),
(158,500,o),
(147,500,qs),
(142,500,ls),
(141,500,o),
(140,500,o),
(139,500,q),
(139,513,ls),
(139,476,o),
(139,438,o),
(139,400,qs),
(139,389,ls),
(139,377,o),
(142,369,o),
(146,366,qs),
(147,365,o),
(148,364,qs),
(179,330,ls),
(191,316,o),
(189,310,o),
(168,310,qs),
(142,310,ls),
(121,309,o),
(105,306,o),
(100,297,o),
(100,285,qs),
(100,36,ls),
(100,27,o),
(100,18,o),
(100,9,o),
(100,0,q),
(200,0,l),
(200,10,o),
(200,20,o),
(200,30,qs),
(200,267,ls),
(200,287,o),
(204,304,o),
(211,305,o),
(220,303,qs),
(224,302,o),
(232,300,o),
(237,300,qs),
(557,300,ls),
(574,300,o),
(600,278,o),
(600,257,qs),
(600,0,l),
(601,0,ls),
(616,0,o),
(631,0,o),
(647,0,qs),
(700,0,l),
(700,11,o),
(700,22,o),
(700,34,qs),
(700,300,l),
(674,300,o),
(599,301,o),
(590,302,q),
(592,302,o),
(601,311,qs),
(616,326,o),
(650,352,o),
(675,363,q),
(675,369,o),
(675,375,o),
(675,380,o),
(675,386,qs),
(675,406,ls),
(675,429,o),
(675,453,o),
(675,476,o),
(675,499,q),
(674,499,ls),
(667,498,o),
(637,499,o),
(629,504,qs),
(619,510,o),
(606,525,o),
(601,552,o),
(602,573,qs),
(603,595,o),
(601,612,o),
(592,613,o),
(581,609,qs),
(554,599,o),
(535,599,qs),
(513,598,o),
(449,630,o),
(431,653,qs),
(423,663,o),
(408,688,o),
(401,700,q)
);
},
{
closed = 1;
nodes = (
(401,691,l),
(403,689,o),
(404,686,o),
(406,684,q),
(464,593,o),
(510,554,q),
(535,566,o),
(560,578,o),
(586,591,q),
(590,592,o),
(593,594,o),
(597,595,q),
(588,586,o),
(579,542,o),
(592,502,o),
(613,496,qs),
(636,491,l),
(613,491,o),
(601,457,o),
(601,418,qs),
(601,382,o),
(594,328,o),
(581,302,q),
(234,301,ls),
(223,301,o),
(206,400,o),
(201,453,qs),
(200,470,ls),
(200,477,o),
(184,487,o),
(175,489,qs),
(172,490,o),
(173,491,o),
(179,491,qs),
(202,490,o),
(217,524,o),
(214,564,o),
(209,585,qs),
(208,592,l),
(214,589,o),
(253,568,o),
(278,554,q),
(314,578,o),
(352,622,o),
(373,654,qs),
(389,678,o),
(399,691,q)
);
}
);
width = 799;
}
);
note = A;
unicode = (65,97);
},
{
glyphname = B;
lastChange = "2025-10-01 15:58:07 +0000";
layers = (
{
layerId = m01;
shapes = (
{
closed = 1;
nodes = (
(255,699,ls),
(222,700,o),
(199,690,o),
(200,668,qs),
(201,641,o),
(180,601,o),
(156,600,qs),
(153,600,o),
(147,600,o),
(144,599,q),
(121,598,o),
(100,589,o),
(100,570,qs),
(100,446,ls),
(100,419,o),
(122,401,o),
(148,400,qs),
(171,400,o),
(183,394,qs),
(191,390,o),
(199,376,o),
(200,364,qs),
(200,330,ls),
(200,318,o),
(186,301,o),
(165,300,qs),
(123,300,ls),
(110,300,o),
(100,281,o),
(100,259,qs),
(100,36,ls),
(100,13,o),
(115,0,o),
(142,0,qs),
(561,0,ls),
(587,1,o),
(600,16,o),
(600,44,qs),
(600,71,o),
(625,100,o),
(652,100,qs),
(680,100,o),
(700,119,o),
(700,153,qs),
(700,275,ls),
(700,302,o),
(653,300,qs),
(624,299,o),
(600,312,o),
(600,336,qs),
(600,340,o),
(600,343,o),
(600,347,qs),
(600,378,o),
(609,400,o),
(632,400,qs),
(659,400,o),
(682,402,o),
(700,417,o),
(700,435,qs),
(700,574,ls),
(700,589,o),
(682,601,o),
(660,600,qs),
(631,599,o),
(600,611,o),
(600,638,qs),
(600,673,o),
(590,700,o),
(569,700,qs)
);
},
{
closed = 1;
nodes = (
(561,600,ls),
(579,600,o),
(600,582,o),
(600,563,qs),
(600,445,ls),
(600,418,o),
(573,402,o),
(539,400,q),
(252,399,ls),
(224,399,o),
(199,420,o),
(199,437,qs),
(202,557,ls),
(202,566,o),
(203,570,q),
(204,586,o),
(218,599,o),
(239,601,o),
(264,600,qs)
);
},
{
closed = 1;
nodes = (
(554,300,ls),
(579,300,o),
(600,289,o),
(600,268,qs),
(600,151,ls),
(600,132,o),
(596,112,o),
(590,107,qs),
(582,100,o),
(558,100,qs),
(312,100,ls),
(291,100,o),
(257,103,o),
(243,105,qs),
(200,114,o),
(200,136,qs),
(200,264,ls),
(200,282,o),
(208,297,o),
(225,300,o),
(245,299,qs),
(255,299,o),
(265,299,qs)
);
}
);
width = 800;
},
{
layerId = "B9A38041-4120-40BB-8A36-A48F98B8CF9F";
shapes = (
{
closed = 1;
nodes = (
(100,700,l),
(100,689,o),
(100,678,o),
(100,667,q),
(95,643,o),
(27,601,o),
(0,601,q),
(0,601,o),
(0,601,o),
(0,601,q),
(0,590,o),
(0,580,o),
(0,569,qs),
(0,400,l),
(11,400,o),
(22,400,o),
(33,400,qs),
(62,400,o),
(87,405,qs),
(98,407,o),
(102,406,o),
(103,400,q),
(101,390,ls),
(92,345,o),
(71,301,o),
(49,300,qs),
(0,300,l),
(0,286,o),
(0,272,o),
(0,258,qs),
(0,0,l),
(14,0,o),
(28,0,o),
(42,0,qs),
(500,0,ls),
(510,0,o),
(520,0,o),
(531,0,qs),
(554,0,o),
(577,0,o),
(600,0,q),
(600,50,o),
(600,100,o),
(600,152,qs),
(600,300,l),
(581,301,o),
(552,300,qs),
(530,299,o),
(509,354,o),
(500,400,qs),
(499,404,o),
(502,405,o),
(506,404,qs),
(511,402,o),
(527,400,o),
(538,400,qs),
(554,400,o),
(569,400,o),
(585,400,o),
(600,400,q),
(600,601,l),
(597,601,o),
(594,601,o),
(591,601,qs),
(557,601,o),
(504,629,o),
(500,677,qs),
(500,684,o),
(500,696,o),
(500,700,q)
);
},
{
closed = 1;
nodes = (
(484,698,ls),
(492,698,o),
(500,600,o),
(500,562,qs),
(500,444,ls),
(500,421,o),
(488,401,o),
(482,400,q),
(152,398,ls),
(125,398,o),
(99,421,o),
(99,436,qs),
(100,555,ls),
(100,564,o),
(100,572,qs),
(100,600,o),
(102,661,o),
(113,698,o),
(125,698,qs)
);
},
{
closed = 1;
nodes = (
(493,398,ls),
(496,398,o),
(500,300,o),
(500,267,qs),
(496,11,ls),
(496,7,o),
(493,7,o),
(491,8,qs),
(485,10,o),
(477,10,qs),
(102,8,l),
(102,8,o),
(101,7,o),
(101,7,q),
(100,6,o),
(100,10,qs),
(98,300,ls),
(98,306,o),
(102,339,o),
(109,382,o),
(113,391,qs),
(115,397,o),
(118,397,qs)
);
}
);
width = 600;
}
);
note = B;
unicode = (66,98);
},
{
glyphname = C;
lastChange = "2025-10-01 15:58:07 +0000";
layers = (
{
layerId = m01;
shapes = (
{
closed = 1;
nodes = (
(230,600,l),
(139,600,ls),
(121,600,o),
(100,581,o),
(100,553,qs),
(100,153,ls),
(100,126,o),
(103,107,o),
(115,100,o),
(131,100,qs),
(251,100,ls),
(266,100,o),
(272,99,qs),
(286,97,o),
(300,83,o),
(300,67,qs),
(300,35,o),
(303,14,o),
(320,3,o),
(344,0,q),
(563,0,ls),
(583,0,o),
(597,5,o),
(600,21,o),
(600,46,qs),
(600,70,o),
(598,89,o),
(593,94,qs),
(586,100,o),
(554,100,qs),
(339,100,ls),
(320,100,o),
(305,106,o),
(302,116,qs),
(300,126,o),
(300,138,qs),
(300,145,o),
(300,151,qs),
(301,177,o),
(290,198,o),
(267,200,qs),
(261,201,o),
(249,200,o),
(244,200,qs),
(229,199,o),
(212,203,o),
(202,221,o),
(202,240,qs),
(200,464,ls),
(200,482,o),
(220,500,o),
(248,500,qs),
(272,500,o),
(280,503,qs),
(290,506,o),
(300,524,o),
(300,542,qs),
(300,549,o),
(300,555,qs),
(300,582,o),
(294,599,o),
(281,600,qs)
);
},
{
closed = 1;
nodes = (
(353,700,ls),
(320,701,o),
(300,689,o),
(300,670,qs),
(300,651,ls),
(299,627,o),
(302,608,o),
(317,600,o),
(336,600,qs),
(559,600,ls),
(562,600,o),
(564,600,o),
(567,600,qs),
(587,599,o),
(602,589,o),
(601,567,qs),
(600,541,ls),
(599,520,o),
(602,506,o),
(615,501,o),
(632,500,qs),
(672,499,o),
(693,501,o),
(700,514,o),
(700,534,qs),
(700,570,o),
(696,594,o),
(684,600,o),
(665,600,qs),
(653,600,ls),
(625,599,o),
(599,611,o),
(600,635,qs),
(602,665,o),
(596,692,o),
(577,700,o),
(555,700,qs)
);
},
{
closed = 1;
nodes = (
(637,200,ls),
(616,200,o),
(603,197,o),
(600,185,o),
(600,166,qs),
(599,126,o),
(602,105,o),
(618,100,o),
(647,100,qs),
(663,100,ls),
(682,99,o),
(695,105,o),
(700,131,o),
(700,166,qs),
(700,181,o),
(693,200,o),
(681,200,qs)
);
}
);
width = 800;
},
{
layerId = "B9A38041-4120-40BB-8A36-A48F98B8CF9F";
shapes = (
{
closed = 1;
nodes = (
(230,600,l),
(100,600,l),
(100,584,o),
(100,569,o),
(100,553,qs),
(100,100,l),
(108,100,o),
(116,100,o),
(123,100,o),
(131,100,qs),
(283,100,ls),
(286,100,o),
(290,104,q),
(296,108,o),
(300,97,o),
(300,67,qs),
(300,50,o),
(300,34,o),
(300,17,o),
(300,0,q),
(600,0,l),
(600,4,o),
(600,9,o),
(600,13,o),
(600,17,qs),
(600,40,o),
(598,42,o),
(595,32,qs),
(590,6,o),
(584,6,qs),
(371,5,l),
(340,12,o),
(319,56,o),
(315,92,qs),
(312,116,o),
(308,129,qs),
(306,136,o),
(303,142,qs),
(297,157,o),
(277,188,o),
(267,200,q),
(264,189,o),
(256,170,o),
(251,161,qs),
(241,144,o),
(217,123,o),
(200,121,o),
(200,129,qs),
(200,464,l),
(164,512,o),
(111,585,o),
(104,597,q),
(118,597,o),
(153,572,qs),
(177,555,o),
(200,548,o),
(200,564,qs),
(200,570,o),
(204,574,q),
(215,589,o),
(279,600,o),
(292,600,qs)
);
},
{
closed = 1;
nodes = (
(353,700,ls),
(336,700,o),
(318,700,o),
(300,700,q),
(300,680,ls),
(300,660,o),
(300,640,o),
(300,620,o),
(300,600,q),
(610,601,ls),
(629,600,o),
(631,596,o),
(622,591,qs),
(610,583,o),
(600,574,o),
(600,567,qs),
(600,549,ls),
(600,537,o),
(600,525,o),
(600,512,o),
(600,500,q),
(625,500,o),
(650,500,o),
(675,500,o),
(700,500,q),
(700,525,o),
(700,550,o),
(700,575,o),
(700,600,q),
(696,600,ls),
(667,602,o),
(600,618,o),
(600,635,qs),
(600,651,o),
(600,668,o),
(600,684,o),
(600,700,q)
);
},
{
closed = 1;
nodes = (
(600,200,l),
(600,192,o),
(600,183,o),
(600,175,o),
(600,166,qs),
(600,150,o),
(600,133,o),
(600,117,o),
(600,100,q),
(618,100,ls),
(639,100,o),
(659,100,o),
(680,100,o),
(700,100,q),
(700,133,o),
(700,166,o),
(700,200,q)
);
}
);
width = 800;
}
);
note = C;
unicode = (67,99);
},
{
glyphname = D;
lastChange = "2025-10-01 15:58:07 +0000";
layers = (
{
layerId = m01;
shapes = (
{
closed = 1;
nodes = (
(243,699,ls),
(223,700,o),
(208,698,o),
(200,685,o),
(200,668,qs),
(200,637,o),
(183,604,o),
(154,600,q),
(144,600,ls),
(125,600,o),
(100,589,o),
(100,568,qs),
(100,154,ls),
(100,130,o),
(103,111,o),
(117,100,o),
(134,100,qs),
(143,100,ls),
(163,100,o),
(185,97,o),
(200,82,o),
(200,66,qs),
(201,39,o),
(204,16,o),
(221,0,o),
(240,0,qs),
(461,0,ls),
(485,0,o),
(500,11,o),
(500,33,qs),
(500,45,ls),
(499,72,o),
(507,101,o),
(523,100,qs),
(537,100,ls),
(572,98,o),
(601,110,o),
(600,138,qs),
(600,152,ls),
(601,172,o),
(608,192,o),
(624,200,o),
(640,200,qs),
(649,200,ls),
(677,200,o),
(699,210,o),
(700,232,qs),
(700,460,ls),
(700,481,o),
(682,500,o),
(661,500,qs),
(633,500,o),
(600,517,o),
(600,544,qs),
(600,556,ls),
(600,576,o),
(598,592,o),
(585,600,o),
(570,600,qs),
(557,600,ls),
(528,599,o),
(500,610,o),
(500,634,qs),
(500,670,o),
(489,700,o),
(466,700,qs)
);
},
{
closed = 1;
nodes = (
(464,600,ls),
(487,600,o),
(498,578,o),
(499,545,qs),
(499,535,ls),
(500,510,o),
(537,499,o),
(566,500,qs),
(584,500,o),
(589,497,qs),
(595,494,o),
(600,482,o),
(600,469,qs),
(600,228,ls),
(600,214,o),
(578,201,o),
(550,199,o),
(527,200,qs),
(508,201,o),
(500,185,o),
(500,159,qs),
(500,147,l),
(500,138,ls),
(499,116,o),
(478,101,o),
(451,100,qs),
(240,100,ls),
(221,101,o),
(204,113,o),
(200,136,o),
(200,161,qs),
(200,566,ls),
(200,575,o),
(202,583,qs),
(206,595,o),
(227,601,o),
(251,601,qs)
);
}
);
width = 800;
},
{
layerId = "B9A38041-4120-40BB-8A36-A48F98B8CF9F";
shapes = (
{
closed = 1;
nodes = (
(200,700,l),
(200,691,o),
(200,681,o),
(200,672,o),
(200,662,qs),
(200,637,o),
(139,601,o),
(100,600,q),
(100,600,l),
(100,589,o),
(100,579,o),
(100,568,qs),
(100,100,l),
(119,100,o),
(138,100,o),
(157,100,o),
(176,100,qs),
(182,100,ls),
(192,101,o),
(199,92,o),
(201,53,o),
(200,0,q),
(210,0,o),
(220,0,o),
(230,0,o),
(240,0,qs),
(500,0,ls),
(502,0,o),
(503,15,o),
(503,33,qs),
(503,46,ls),
(503,69,o),
(505,106,o),
(505,111,q),
(507,107,l),
(515,102,o),
(569,99,o),
(602,100,q),
(602,116,ls),
(601,145,o),
(609,178,o),
(653,200,o),
(700,200,q),
(700,200,l),
(700,202,o),
(700,217,o),
(700,232,qs),
(700,500,l),
(687,500,o),
(674,500,o),
(661,500,qs),
(639,500,o),
(600,503,o),
(588,505,qs),
(576,508,ls),
(560,512,o),
(535,522,o),
(520,532,o),
(518,536,qs),
(513,546,ls),
(506,559,o),
(502,582,o),
(502,599,qs),
(501,632,o),
(501,666,o),
(500,700,q)
);
},
{
closed = 1;
nodes = (
(495,693,l),
(497,634,o),
(498,574,o),
(500,513,qs),
(500,500,l),
(544,499,o),
(587,499,o),
(632,498,qs),
(645,498,o),
(634,495,qs),
(620,491,o),
(600,479,o),
(600,469,qs),
(598,111,ls),
(598,96,o),
(549,129,o),
(500,185,o),
(500,200,q),
(500,196,o),
(500,192,o),
(500,188,q),
(500,188,l),
(500,177,ls),
(500,130,o),
(498,9,o),
(493,9,qs),
(210,9,l),
(209,18,o),
(208,40,o),
(207,67,o),
(207,82,qs),
(208,611,ls),
(208,619,o),
(208,627,qs),
(208,640,o),
(207,671,o),
(206,693,q)
);
}
);
width = 800;
}
);
note = D;
unicode = (68,100);
},
{
glyphname = E;
lastChange = "2025-10-01 15:58:07 +0000";
layers = (
{
layerId = m01;
shapes = (
{
closed = 1;
nodes = (
(262,700,ls),
(226,701,o),
(200,690,o),
(200,668,qs),
(200,658,o),
(198,639,o),
(194,623,o),
(191,617,qs),
(186,609,o),
(170,600,o),
(158,600,qs),
(125,600,o),
(100,588,o),
(100,564,qs),
(100,440,ls),
(100,399,o),
(137,400,qs),
(160,401,o),
(200,385,o),
(200,368,qs),
(199,333,o),
(196,312,o),
(178,300,o),
(154,300,qs),
(129,300,o),
(107,292,o),
(100,274,o),
(100,253,qs),
(101,159,l),
(100,49,ls),
(101,27,o),
(106,10,o),
(125,2,o),
(148,0,q),
(549,0,ls),
(574,1,o),
(594,6,o),
(600,23,o),
(600,44,qs),
(600,66,o),
(597,87,o),
(592,92,qs),
(588,97,o),
(568,100,o),
(548,100,qs),
(277,100,ls),
(241,101,o),
(215,106,o),
(200,129,o),
(200,158,qs),
(200,267,ls),
(200,278,o),
(220,300,o),
(236,300,qs),
(439,300,ls),
(469,300,o),
(500,310,o),
(500,331,qs),
(500,342,ls),
(500,373,o),
(494,400,o),
(481,400,qs),
(257,400,ls),
(250,400,o),
(231,400,o),
(223,403,q),
(212,405,o),
(200,419,o),
(200,432,qs),
(200,557,ls),
(199,575,o),
(214,600,o),
(233,600,qs),
(537,600,ls),
(555,600,o),
(584,604,o),
(593,611,qs),
(600,618,o),
(600,628,qs),
(600,634,ls),
(600,662,o),
(590,700,o),
(571,700,qs)
);
}
);
width = 800;
},
{
layerId = "B9A38041-4120-40BB-8A36-A48F98B8CF9F";
shapes = (
{
closed = 1;
nodes = (
(200,700,l),
(201,673,o),
(201,620,o),
(200,600,qs),
(197,566,o),
(193,543,o),
(187,544,o),
(178,554,qs),
(163,572,o),
(128,597,o),
(100,600,q),
(100,588,o),
(100,576,o),
(100,564,qs),
(100,400,l),
(153,400,o),
(205,400,qs),
(212,400,o),
(220,400,o),
(227,400,q),
(227,352,o),
(227,304,o),
(226,256,o),
(226,208,q),
(194,196,o),
(144,216,o),
(109,266,o),
(100,299,q),
(101,159,l),
(100,0,l),
(112,0,o),
(124,0,o),
(136,0,o),
(148,0,qs),
(600,0,l),
(600,14,o),
(600,27,o),
(600,41,o),
(600,54,qs),
(600,72,o),
(598,62,o),
(597,49,qs),
(595,34,o),
(591,6,o),
(590,6,qs),
(203,8,l),
(184,14,o),
(217,-2,o),
(234,20,o),
(234,58,qs),
(234,100,ls),
(234,134,o),
(234,167,o),
(234,202,qs),
(234,423,l),
(322,423,o),
(410,423,o),
(500,423,q),
(500,423,l),
(500,424,o),
(500,425,o),
(500,426,q),
(215,426,ls),
(211,426,o),
(205,421,o),
(203,418,qs),
(201,415,o),
(200,418,o),
(200,424,qs),
(203,557,l),
(202,574,o),
(206,697,o),
(208,697,qs),
(574,697,ls),
(584,697,o),
(594,644,o),
(599,606,qs),
(600,597,o),
(600,601,qs),
(600,607,ls),
(600,638,o),
(600,668,o),
(600,700,q)
);
}
);
width = 800;
}
);
note = E;
unicode = (69,101);
},
{
glyphname = F;
lastChange = "2025-10-01 15:58:07 +0000";
layers = (
{
layerId = m01;
shapes = (
{
closed = 1;
nodes = (
(265,700,ls),
(234,700,o),
(200,686,o),
(200,663,qs),
(200,636,o),
(194,604,o),
(180,601,qs),
(177,600,o),
(172,600,qs),
(136,601,o),
(100,590,o),
(100,573,qs),
(100,458,ls),
(99,426,o),
(118,400,o),
(145,400,qs),
(163,400,o),
(188,393,o),
(200,379,o),
(200,367,qs),
(200,333,o),
(184,300,o),
(157,300,qs),
(125,300,o),
(100,284,o),
(100,261,qs),
(100,44,ls),
(100,19,o),
(111,-1,o),
(130,0,qs),
(148,0,ls),
(176,0,o),
(201,9,o),
(200,30,qs),
(200,242,ls),
(200,270,o),
(213,300,o),
(234,300,qs),
(555,300,ls),
(574,300,o),
(591,304,o),
(600,327,o),
(600,354,qs),
(600,376,o),
(591,396,o),
(574,400,o),
(555,400,qs),
(246,400,ls),
(229,400,o),
(200,425,o),
(200,452,qs),
(200,558,ls),
(200,578,o),
(215,600,o),
(229,600,qs),
(554,600,ls),
(556,600,o),
(558,600,o),
(560,600,qs),
(580,600,o),
(600,611,o),
(600,636,qs),
(600,670,o),
(593,700,o),
(574,700,qs)
);
}
);
width = 800;
},
{
layerId = "B9A38041-4120-40BB-8A36-A48F98B8CF9F";
shapes = (
{
closed = 1;
nodes = (
(200,700,l),
(201,697,o),
(201,679,o),
(200,663,qs),
(197,620,o),
(148,599,o),
(110,600,qs),
(105,600,o),
(100,600,q),
(100,591,o),
(100,582,o),
(100,573,qs),
(100,395,l),
(117,395,o),
(134,395,o),
(152,395,qs),
(178,395,o),
(194,392,o),
(190,385,o),
(179,373,qs),
(153,349,o),
(127,325,o),
(100,300,q),
(100,287,o),
(100,274,o),
(100,261,qs),
(100,0,l),
(110,0,o),
(120,0,o),
(130,0,qs),
(147,0,ls),
(164,0,o),
(182,0,o),
(200,0,q),
(200,242,ls),
(200,293,o),
(214,388,o),
(236,388,qs),
(570,388,ls),
(576,388,o),
(587,363,o),
(597,323,o),
(600,300,q),
(600,325,o),
(600,350,o),
(600,375,o),
(600,400,q),
(246,400,ls),
(229,400,o),
(200,425,o),
(200,452,qs),
(200,551,ls),
(200,573,o),
(204,647,o),
(206,690,q),
(578,690,ls),
(585,690,o),
(594,645,o),
(598,612,qs),
(599,604,o),
(600,601,o),
(600,608,qs),
(600,638,o),
(600,669,o),
(600,700,q)
);
}
);
width = 800;
}
);
note = F;
unicode = (70,102);
},
{
glyphname = G;
lastChange = "2025-10-01 15:58:07 +0000";
layers = (
{
layerId = m01;
shapes = (
{
closed = 1;
nodes = (
(279,700,ls),
(240,700,o),
(201,690,o),
(200,669,qs),
(200,661,o),
(199,656,q),
(199,631,o),
(187,602,o),
(166,600,qs),
(154,599,ls),
(128,597,o),
(100,585,o),
(100,564,qs),
(100,169,ls),
(100,138,o),
(123,100,o),
(145,100,qs),
(251,100,ls),
(276,100,o),
(301,81,o),
(301,54,qs),
(301,26,o),
(307,5,o),
(323,0,o),
(346,0,qs),
(547,0,ls),
(574,0,o),
(600,20,o),
(600,47,qs),
(600,61,o),
(603,80,o),
(607,86,qs),
(615,97,o),
(628,100,qs),
(634,102,o),
(645,100,q),
(671,100,o),
(700,112,o),
(700,140,qs),
(700,264,ls),
(700,283,o),
(680,299,o),
(654,300,qs),
(628,301,o),
(600,326,o),
(600,349,qs),
(600,378,o),
(571,400,o),
(533,400,qs),
(365,400,ls),
(333,400,o),
(300,390,o),
(300,367,qs),
(300,331,o),
(303,309,o),
(320,300,o),
(344,300,qs),
(535,300,ls),
(539,300,o),
(542,300,qs),
(570,300,o),
(600,287,o),
(600,259,qs),
(600,167,l),
(600,158,ls),
(601,128,o),
(584,100,o),
(550,100,qs),
(359,100,l),
(328,102,o),
(299,118,o),
(300,144,qs),
(301,176,o),
(286,200,o),
(257,200,qs),
(244,200,o),
(224,205,o),
(216,211,qs),
(208,217,o),
(200,238,o),
(200,253,qs),
(199,553,ls),
(200,573,o),
(216,600,o),
(233,600,qs),
(534,600,ls),
(580,600,o),
(594,569,qs),
(601,556,o),
(601,530,qs),
(601,508,o),
(615,499,o),
(639,500,qs),
(652,500,ls),
(677,500,o),
(693,502,o),
(700,514,o),
(700,530,qs),
(700,578,o),
(697,639,o),
(675,700,o),
(650,700,qs)
);
}
);
width = 800;
},
{
layerId = "B9A38041-4120-40BB-8A36-A48F98B8CF9F";
shapes = (
{
closed = 1;
nodes = (
(100,700,l),
(100,686,o),
(100,672,o),
(100,658,qs),
(100,647,o),
(93,639,qs),
(82,625,o),
(31,605,o),
(1,600,q),
(1,600,l),
(1,588,o),
(1,576,o),
(1,564,qs),
(0,100,l),
(15,100,o),
(30,100,o),
(46,100,qs),
(152,100,l),
(171,155,o),
(199,211,o),
(199,190,qs),
(199,143,o),
(200,95,o),
(200,48,o),
(200,0,q),
(502,0,l),
(502,38,o),
(503,76,o),
(503,115,qs),
(503,127,o),
(508,127,o),
(514,118,qs),
(527,100,o),
(535,100,qs),
(543,100,o),
(551,100,qs),
(567,100,o),
(583,100,o),
(600,100,q),
(600,300,l),
(596,300,o),
(592,300,o),
(588,300,qs),
(548,303,o),
(501,341,o),
(501,400,q),
(479,400,o),
(457,400,o),
(434,400,qs),
(200,400,l),
(200,367,o),
(200,334,o),
(200,300,q),
(223,300,o),
(247,300,o),
(270,300,o),
(293,300,qs),
(567,300,ls),
(573,300,o),
(569,299,q),
(548,297,o),
(501,281,o),
(501,264,qs),
(501,167,l),
(501,156,ls),
(500,107,o),
(499,58,o),
(498,8,q),
(215,8,ls),
(209,8,o),
(208,6,o),
(208,11,qs),
(205,73,o),
(203,136,o),
(200,200,q),
(189,200,o),
(161,168,o),
(139,139,qs),
(119,112,o),
(102,96,o),
(102,110,qs),
(105,695,l),
(266,695,o),
(428,694,o),
(594,694,q),
(525,513,ls),
(509,470,o),
(501,588,qs),
(500,600,o),
(500,587,qs),
(500,559,o),
(500,531,o),
(500,502,qs),
(500,500,l),
(525,500,o),
(550,500,o),
(575,500,o),
(600,500,q),
(600,550,o),
(600,600,o),
(600,650,o),
(600,700,q)
);
}
);
width = 600;
}
);
note = G;
unicode = (71,103);
},
{
glyphname = H;
lastChange = "2025-10-01 15:58:07 +0000";
layers = (
{
layerId = m01;
shapes = (
{
closed = 1;
nodes = (
(138,700,l),
(130,700,ls),
(113,699,o),
(100,690,o),
(100,671,qs),
(100,466,ls),
(100,432,o),
(102,410,o),
(115,400,o),
(132,400,qs),
(163,400,o),
(174,398,qs),
(183,396,o),
(194,389,o),
(200,375,o),
(200,365,qs),
(200,347,o),
(197,323,o),
(189,308,o),
(181,304,qs),
(173,300,o),
(158,300,qs),
(149,300,ls),
(120,300,o),
(100,291,o),
(100,271,qs),
(100,46,ls),
(100,23,o),
(104,5,o),
(120,0,o),
(140,0,qs),
(171,0,o),
(194,5,o),
(200,22,o),
(200,45,qs),
(200,234,ls),
(200,265,o),
(225,300,o),
(250,300,qs),
(535,300,ls),
(565,301,o),
(599,285,o),
(600,263,qs),
(600,35,ls),
(600,17,o),
(607,3,o),
(624,0,o),
(647,0,qs),
(673,0,o),
(693,3,o),
(700,17,o),
(700,35,qs),
(700,270,ls),
(700,285,o),
(682,300,o),
(656,300,qs),
(635,300,o),
(613,304,o),
(600,324,o),
(600,346,qs),
(600,360,o),
(602,382,o),
(607,395,o),
(613,398,qs),
(619,400,o),
(625,400,qs),
(658,400,o),
(685,404,o),
(700,424,o),
(700,448,qs),
(700,672,ls),
(700,687,o),
(693,697,o),
(673,700,o),
(645,700,qs),
(617,700,o),
(600,692,o),
(600,672,qs),
(600,465,ls),
(600,438,o),
(578,400,o),
(542,400,qs),
(279,400,l),
(265,400,ls),
(236,399,o),
(212,405,o),
(200,433,o),
(200,466,qs),
(200,649,l),
(200,658,ls),
(200,678,o),
(192,700,o),
(177,700,qs)
);
}
);
width = 800;
},
{
layerId = "B9A38041-4120-40BB-8A36-A48F98B8CF9F";
shapes = (
{
closed = 1;
nodes = (
(100,700,l),
(100,700,l),
(100,690,o),
(100,681,o),
(100,671,qs),
(100,400,l),
(107,399,o),
(125,399,o),
(147,399,o),
(159,400,qs),
(173,401,o),
(188,416,qs),
(194,422,o),
(198,420,o),
(200,394,o),
(200,370,qs),
(201,329,o),
(199,286,o),
(195,283,o),
(192,291,qs),
(188,300,o),
(185,300,qs),
(175,300,ls),
(150,300,o),
(126,300,o),
(100,300,q),
(100,0,l),
(110,0,o),
(120,0,o),
(130,0,o),
(140,0,qs),
(155,0,o),
(170,0,o),
(185,0,o),
(200,0,q),
(200,201,ls),
(199,234,o),
(224,314,o),
(244,349,q),
(560,350,l),
(577,314,o),
(600,233,o),
(600,201,qs),
(600,0,l),
(612,0,o),
(624,0,o),
(635,0,o),
(647,0,qs),
(660,0,o),
(674,0,o),
(687,0,o),
(700,0,q),
(700,270,ls),
(700,280,o),
(700,290,o),
(700,300,q),
(659,280,o),
(614,280,o),
(598,313,o),
(600,346,qs),
(602,376,o),
(607,399,o),
(618,403,o),
(634,402,qs),
(648,400,o),
(662,400,qs),
(672,400,o),
(681,400,o),
(691,400,o),
(700,400,q),
(700,700,l),
(686,700,o),
(673,700,o),
(659,700,o),
(645,700,qs),
(630,700,o),
(615,700,o),
(600,700,q),
(600,484,ls),
(600,441,o),
(577,374,o),
(560,354,q),
(244,353,l),
(243,354,ls),
(235,365,o),
(217,395,o),
(200,450,o),
(200,484,qs),
(200,649,l),
(200,658,ls),
(199,669,o),
(200,690,o),
(200,700,q)
);
}
);
width = 800;
}
);
note = H;
unicode = (72,104);
},
{
glyphname = I;
lastChange = "2025-10-01 15:58:07 +0000";
layers = (
{
layerId = m01;
shapes = (
{
closed = 1;
nodes = (
(345,700,ls),
(323,700,o),
(307,698,o),
(300,685,o),
(300,669,qs),
(300,433,ls),
(300,417,o),
(303,404,o),
(317,400,o),
(334,400,qs),
(369,400,o),
(392,403,o),
(400,415,o),
(400,433,qs),
(400,669,ls),
(400,691,o),
(387,700,o),
(364,700,qs)
);
},
{
closed = 1;
nodes = (
(333,300,ls),
(314,300,o),
(300,292,o),
(300,276,qs),
(300,37,ls),
(300,18,o),
(303,4,o),
(313,0,o),
(327,0,qs),
(376,0,l),
(379,0,ls),
(390,0,o),
(400,9,o),
(400,30,qs),
(400,246,l),
(400,257,ls),
(400,282,o),
(393,300,o),
(379,300,qs)
);
}
);
width = 800;
},
{
layerId = "B9A38041-4120-40BB-8A36-A48F98B8CF9F";
shapes = (
{
closed = 1;
nodes = (
(345,700,ls),
(334,700,o),
(323,700,o),
(311,700,o),
(300,700,q),
(300,400,l),
(313,387,o),
(326,374,o),
(339,361,o),
(352,348,q),
(364,361,o),
(376,374,o),
(388,387,o),
(400,400,q),
(400,700,l),
(388,700,o),
(376,700,o),
(364,700,qs)
);
},
{
closed = 1;
nodes = (
(352,348,l),
(335,332,o),
(318,316,o),
(300,300,q),
(300,0,l),
(307,0,o),
(314,0,o),
(320,0,o),
(327,0,qs),
(376,0,l),
(379,0,ls),
(386,0,o),
(393,0,o),
(400,0,q),
(400,300,l),
(399,301,ls),
(383,317,o),
(368,332,o),
(352,348,q)
);
}
);
width = 800;
}
);
note = I;
unicode = (73,105);
},
{
glyphname = J;
lastChange = "2025-10-01 15:58:07 +0000";
layers = (
{
layerId = m01;
shapes = (
{
closed = 1;
nodes = (
(261,700,ls),
(225,700,o),
(201,692,o),
(200,674,qs),
(199,638,o),
(204,608,o),
(217,600,o),
(233,600,qs),
(431,600,ls),
(462,600,o),
(500,584,o),
(500,562,qs),
(500,531,o),
(504,508,o),
(519,500,o),
(538,500,qs),
(564,500,o),
(586,497,o),
(600,479,o),
(600,457,qs),
(600,171,ls),
(600,136,o),
(571,100,o),
(527,100,qs),
(253,100,l),
(229,103,o),
(200,117,o),
(200,135,qs),
(200,169,o),
(193,194,o),
(176,200,o),
(151,200,qs),
(124,200,o),
(106,195,o),
(100,174,o),
(100,144,qs),
(100,122,o),
(107,103,o),
(122,99,o),
(140,100,qs),
(151,100,ls),
(170,100,o),
(200,75,o),
(200,55,qs),
(200,43,ls),
(200,21,o),
(204,6,o),
(218,1,o),
(239,0,qs),
(554,0,ls),
(575,-1,o),
(600,15,o),
(600,39,qs),
(600,67,o),
(619,100,o),
(638,100,qs),
(663,100,o),
(686,104,o),
(700,121,o),
(700,142,qs),
(700,462,ls),
(700,480,o),
(689,496,o),
(670,500,o),
(649,500,qs),
(630,500,o),
(612,504,o),
(600,526,o),
(600,552,qs),
(600,578,o),
(606,597,o),
(620,600,o),
(640,600,qs),
(668,600,o),
(690,604,o),
(700,621,o),
(700,643,qs),
(700,674,o),
(692,696,o),
(673,700,o),
(642,700,qs),
(635,700,ls),
(616,700,o),
(599,692,o),
(600,675,qs),
(601,636,o),
(598,608,o),
(580,599,o),
(556,600,qs),
(542,600,ls),
(519,600,o),
(500,610,o),
(500,631,qs),
(500,648,ls),
(501,677,o),
(492,702,o),
(472,701,qs)
);
}
);
width = 820;
},
{
layerId = "B9A38041-4120-40BB-8A36-A48F98B8CF9F";
shapes = (
{
closed = 1;
nodes = (
(200,700,l),
(200,670,o),
(199,616,o),
(200,600,q),
(211,600,o),
(221,600,o),
(232,600,o),
(242,600,qs),
(294,600,ls),
(362,600,o),
(430,600,o),
(500,600,q),
(500,575,o),
(500,550,o),
(500,525,o),
(500,500,q),
(524,527,o),
(571,576,o),
(599,598,o),
(599,590,qs),
(600,99,ls),
(600,48,o),
(575,15,o),
(566,15,qs),
(206,16,l),
(205,77,o),
(205,137,o),
(204,200,q),
(178,200,o),
(152,200,o),
(126,200,o),
(100,200,q),
(100,175,o),
(100,150,o),
(100,125,o),
(100,100,q),
(103,100,o),
(107,100,o),
(110,100,o),
(113,100,q),
(113,100,l),
(141,128,o),
(168,156,o),
(197,185,q),
(197,170,ls),
(197,147,o),
(198,91,o),
(199,29,o),
(200,0,q),
(604,0,l),
(604,13,o),
(604,26,o),
(604,39,qs),
(604,69,o),
(619,100,o),
(638,100,qs),
(654,100,o),
(669,100,o),
(685,100,o),
(700,100,q),
(700,500,l),
(680,500,o),
(661,500,o),
(641,500,o),
(621,500,qs),
(605,500,o),
(613,576,o),
(644,667,o),
(657,680,qs),
(664,687,o),
(680,682,o),
(695,643,o),
(700,600,q),
(700,625,o),
(700,650,o),
(700,675,o),
(700,700,q),
(686,700,o),
(671,700,o),
(657,700,o),
(642,700,qs),
(635,700,ls),
(623,700,o),
(612,700,o),
(600,700,q),
(610,679,o),
(609,644,o),
(592,617,o),
(579,609,q),
(562,609,ls),
(528,608,o),
(500,617,o),
(500,637,qs),
(500,653,ls),
(500,669,o),
(500,684,o),
(500,700,q)
);
}
);
width = 820;
}
);
note = J;
unicode = (74,106);
},
{
glyphname = K;
lastChange = "2025-10-01 15:58:07 +0000";
layers = (
{
layerId = m01;
shapes = (
{
closed = 1;
nodes = (
(245,700,ls),
(217,700,o),
(200,690,o),
(200,668,qs),
(200,455,ls),
(200,429,o),
(210,400,o),
(228,400,qs),
(257,400,o),
(299,384,o),
(300,358,qs),
(301,329,o),
(296,307,o),
(279,300,o),
(256,300,qs),
(221,300,o),
(200,283,o),
(200,252,qs),
(200,72,ls),
(199,34,o),
(202,8,o),
(212,0,o),
(226,0,qs),
(243,0,ls),
(273,0,o),
(294,4,o),
(300,18,o),
(300,39,qs),
(300,230,ls),
(300,256,o),
(312,301,o),
(336,300,qs),
(349,300,ls),
(375,300,o),
(400,289,o),
(400,266,qs),
(400,228,o),
(405,200,o),
(419,200,qs),
(447,200,o),
(500,188,o),
(500,169,qs),
(499,131,o),
(502,106,o),
(514,100,o),
(533,100,qs),
(556,100,o),
(581,96,o),
(600,77,o),
(600,56,qs),
(600,24,o),
(605,4,o),
(621,-1,o),
(647,0,qs),
(677,1,o),
(695,3,o),
(700,15,o),
(700,33,qs),
(700,74,o),
(690,100,o),
(673,100,qs),
(637,100,o),
(600,109,o),
(600,128,qs),
(600,144,ls),
(601,174,o),
(591,200,o),
(568,200,qs),
(556,200,ls),
(526,199,o),
(498,212,o),
(499,239,qs),
(500,268,o),
(491,293,o),
(470,301,o),
(447,300,qs),
(428,299,o),
(408,306,o),
(399,325,o),
(399,343,qs),
(399,364,o),
(401,373,qs),
(404,387,o),
(423,401,o),
(443,400,qs),
(477,399,o),
(501,412,o),
(500,439,qs),
(499,476,o),
(507,501,o),
(526,500,qs),
(563,499,o),
(599,508,o),
(600,528,qs),
(600,546,ls),
(600,573,o),
(607,599,o),
(621,600,qs),
(672,600,ls),
(685,601,o),
(700,615,o),
(700,636,qs),
(700,647,ls),
(700,675,o),
(692,700,o),
(673,700,qs),
(656,700,ls),
(625,701,o),
(601,694,o),
(600,679,qs),
(599,643,ls),
(598,626,o),
(573,600,o),
(547,600,qs),
(519,600,o),
(500,584,o),
(500,560,qs),
(500,538,o),
(496,516,o),
(478,500,o),
(458,500,qs),
(429,500,o),
(408,495,o),
(400,475,o),
(400,450,qs),
(400,422,o),
(395,404,o),
(376,400,o),
(344,400,qs),
(320,400,o),
(304,405,o),
(300,423,o),
(301,451,qs),
(300,642,ls),
(301,672,o),
(292,700,o),
(280,700,qs)
);
}
);
width = 1000;
},
{
layerId = "B9A38041-4120-40BB-8A36-A48F98B8CF9F";
shapes = (
{
closed = 1;
nodes = (
(200,700,l),
(200,689,o),
(200,679,o),
(200,668,qs),
(200,397,l),
(209,397,o),
(217,397,o),
(226,397,qs),
(250,397,o),
(275,397,o),
(300,397,q),
(299,364,o),
(271,321,o),
(226,301,o),
(200,300,q),
(200,284,o),
(200,268,o),
(200,252,qs),
(200,0,l),
(207,0,o),
(213,0,o),
(220,0,o),
(226,0,qs),
(243,0,ls),
(257,0,o),
(272,0,o),
(286,0,o),
(300,0,q),
(300,230,ls),
(300,260,o),
(313,398,o),
(324,397,qs),
(329,397,ls),
(346,397,o),
(363,396,o),
(381,396,q),
(389,386,o),
(399,274,o),
(400,200,q),
(439,249,o),
(495,304,o),
(495,290,qs),
(496,263,o),
(498,200,o),
(499,132,o),
(499,100,q),
(524,100,o),
(550,100,o),
(575,100,o),
(600,100,q),
(600,75,o),
(600,50,o),
(600,25,o),
(600,0,q),
(625,0,o),
(650,0,o),
(675,0,o),
(700,0,q),
(700,33,o),
(700,66,o),
(700,100,q),
(657,100,o),
(600,109,o),
(600,128,qs),
(600,141,ls),
(600,160,o),
(600,180,o),
(600,200,q),
(596,193,ls),
(566,140,o),
(502,78,o),
(504,158,qs),
(504,180,o),
(503,228,o),
(501,277,o),
(500,300,q),
(454,296,o),
(410,323,o),
(400,361,o),
(400,388,qs),
(400,390,o),
(392,394,qs),
(386,396,o),
(410,398,o),
(445,398,qs),
(464,398,o),
(484,398,o),
(504,398,q),
(504,462,o),
(512,597,o),
(524,597,qs),
(543,597,o),
(584,541,o),
(600,500,q),
(601,528,ls),
(603,584,o),
(615,697,o),
(622,697,q),
(690,600,l),
(693,600,o),
(697,600,o),
(700,600,q),
(700,603,ls),
(700,635,o),
(700,667,o),
(700,700,q),
(695,700,ls),
(664,700,o),
(632,700,o),
(600,700,q),
(598,600,l),
(581,600,o),
(564,600,o),
(547,600,qs),
(531,600,o),
(516,600,o),
(500,600,q),
(500,510,o),
(493,407,o),
(449,393,o),
(400,500,q),
(400,478,o),
(400,455,o),
(400,433,o),
(400,410,q),
(411,407,o),
(389,404,o),
(332,405,o),
(301,406,q),
(301,408,o),
(301,409,o),
(301,411,o),
(301,412,qs),
(300,642,ls),
(300,661,o),
(300,690,o),
(300,700,q)
);
}
);
width = 1000;
}
);
note = K;
unicode = (75,107);
},
{
glyphname = L;
lastChange = "2025-10-01 15:58:07 +0000";
layers = (
{
layerId = m01;
shapes = (
{
closed = 1;
nodes = (
(131,700,l),
(123,700,ls),
(112,700,o),
(104,697,o),
(100,683,o),
(100,666,qs),
(100,164,ls),
(100,127,o),
(111,100,o),
(134,100,qs),
(167,100,o),
(200,89,o),
(200,66,qs),
(200,33,o),
(202,11,o),
(214,0,o),
(230,0,qs),
(654,0,l),
(662,0,ls),
(680,0,o),
(694,4,o),
(700,21,o),
(700,41,qs),
(700,56,ls),
(701,75,o),
(697,92,o),
(682,100,o),
(663,100,qs),
(258,100,ls),
(234,100,o),
(213,105,o),
(207,113,qs),
(200,123,o),
(200,153,qs),
(200,638,ls),
(200,671,o),
(197,694,o),
(186,700,o),
(170,700,qs)
);
}
);
width = 800;
},
{
layerId = "B9A38041-4120-40BB-8A36-A48F98B8CF9F";
shapes = (
{
closed = 1;
nodes = (
(100,700,l),
(100,700,l),
(100,692,o),
(100,683,o),
(100,675,o),
(100,666,qs),
(100,93,l),
(132,93,o),
(164,93,o),
(197,93,qs),
(209,93,o),
(200,88,o),
(200,70,qs),
(200,53,o),
(200,35,o),
(200,18,o),
(200,0,q),
(700,0,l),
(700,0,l),
(700,10,o),
(700,21,o),
(700,31,o),
(700,41,qs),
(700,56,ls),
(700,67,o),
(700,78,o),
(700,89,o),
(700,100,q),
(229,100,ls),
(194,100,o),
(173,101,o),
(181,103,qs),
(200,106,o),
(200,111,qs),
(200,638,ls),
(200,654,o),
(200,669,o),
(200,685,o),
(200,700,q)
);
}
);
width = 800;
}
);
note = L;
unicode = (76,108);
},
{
glyphname = M;
lastChange = "2025-10-01 15:58:07 +0000";
layers = (
{
layerId = m01;
shapes = (
{
closed = 1;
nodes = (
(148,600,l),
(137,600,ls),
(118,600,o),
(105,597,o),
(100,584,o),
(100,566,qs),
(100,39,ls),
(100,17,o),
(105,2,o),
(117,0,o),
(138,0,qs),
(173,0,o),
(195,3,o),
(201,19,o),
(200,43,qs),
(200,543,ls),
(200,564,o),
(203,577,qs),
(206,589,o),
(221,600,o),
(234,600,qs),
(240,600,o),
(245,600,qs),
(269,600,o),
(289,597,o),
(300,582,o),
(300,564,qs),
(300,548,ls),
(300,523,o),
(303,506,o),
(315,500,o),
(332,500,qs),
(364,500,o),
(400,482,o),
(400,459,qs),
(400,355,ls),
(400,326,o),
(404,306,o),
(417,300,o),
(435,300,qs),
(470,300,o),
(490,302,o),
(500,316,o),
(500,335,qs),
(500,460,ls),
(500,484,o),
(514,500,o),
(532,500,qs),
(538,500,ls),
(565,500,o),
(600,511,o),
(600,533,qs),
(600,575,o),
(606,600,o),
(622,601,qs),
(647,602,o),
(674,601,o),
(700,582,o),
(700,560,qs),
(700,41,ls),
(700,19,o),
(706,4,o),
(724,0,o),
(750,0,qs),
(775,0,o),
(793,4,o),
(800,20,o),
(800,41,qs),
(800,568,ls),
(800,586,o),
(787,600,o),
(770,600,qs),
(748,599,o),
(719,605,o),
(703,619,o),
(701,632,qs),
(700,636,o),
(700,645,qs),
(700,674,o),
(697,693,o),
(682,700,o),
(661,700,qs),
(646,700,ls),
(618,701,o),
(600,694,o),
(600,678,qs),
(600,638,ls),
(600,620,o),
(592,601,o),
(574,600,qs),
(548,600,ls),
(522,600,o),
(500,591,o),
(500,575,qs),
(500,561,ls),
(501,531,o),
(493,499,o),
(478,500,qs),
(458,500,ls),
(427,500,o),
(400,510,o),
(400,531,qs),
(400,553,ls),
(401,577,o),
(398,594,o),
(385,600,o),
(368,600,qs),
(350,600,ls),
(324,601,o),
(300,617,o),
(300,643,qs),
(300,673,o),
(294,695,o),
(276,701,o),
(250,700,qs),
(224,699,o),
(207,697,o),
(200,686,o),
(200,672,qs),
(200,659,o),
(200,646,qs),
(199,622,o),
(191,600,o),
(179,600,qs)
);
}
);
width = 800;
},
{
layerId = "B9A38041-4120-40BB-8A36-A48F98B8CF9F";
shapes = (
{
closed = 1;
nodes = (
(100,600,l),
(100,600,l),
(100,592,o),
(100,583,o),
(100,575,o),
(100,566,qs),
(100,0,l),
(110,0,o),
(119,0,o),
(129,0,o),
(138,0,qs),
(154,0,o),
(169,0,o),
(185,0,o),
(200,0,q),
(200,594,ls),
(200,596,o),
(193,598,q),
(190,600,o),
(197,600,o),
(209,600,qs),
(214,600,o),
(220,602,qs),
(233,607,o),
(261,635,o),
(287,672,o),
(297,693,q),
(297,678,ls),
(297,634,o),
(298,589,o),
(298,545,o),
(298,500,q),
(332,500,o),
(366,500,o),
(401,500,q),
(400,300,l),
(409,300,o),
(418,300,o),
(426,300,o),
(435,300,qs),
(451,300,o),
(468,300,o),
(484,300,o),
(500,300,q),
(501,500,l),
(535,500,o),
(568,500,o),
(603,500,q),
(603,504,ls),
(603,565,o),
(603,627,o),
(603,690,q),
(603,659,o),
(653,613,o),
(689,600,q),
(711,599,o),
(715,599,o),
(700,594,o),
(700,585,qs),
(700,0,l),
(713,0,o),
(725,0,o),
(738,0,o),
(750,0,qs),
(763,0,o),
(775,0,o),
(788,0,o),
(800,0,q),
(800,600,l),
(781,600,o),
(762,600,o),
(743,600,qs),
(720,599,o),
(704,607,o),
(700,631,o),
(700,666,qs),
(700,683,o),
(700,700,q),
(690,700,o),
(681,700,o),
(671,700,o),
(661,700,qs),
(646,700,ls),
(631,700,o),
(616,700,o),
(600,700,q),
(600,638,ls),
(600,594,o),
(600,550,o),
(600,504,q),
(499,503,l),
(499,535,o),
(500,567,o),
(500,600,q),
(498,595,ls),
(482,564,o),
(466,532,o),
(450,500,q),
(447,506,ls),
(432,537,o),
(417,568,o),
(401,600,q),
(401,589,ls),
(401,568,o),
(401,547,o),
(401,525,o),
(401,504,q),
(301,505,l),
(301,569,o),
(300,634,o),
(300,700,q),
(288,700,o),
(275,700,o),
(263,700,o),
(250,700,qs),
(238,700,o),
(225,700,o),
(213,700,o),
(200,700,q),
(200,680,o),
(201,670,qs),
(202,633,o),
(198,600,o),
(187,600,qs)
);
}
);
width = 800;
}
);
note = M;
unicode = (77,109);
},
{
glyphname = N;
lastChange = "2025-10-01 15:58:07 +0000";
layers = (
{
layerId = m01;
shapes = (
{
closed = 1;
nodes = (
(149,700,ls),
(118,700,o),
(100,694,o),
(100,680,qs),
(100,657,ls),
(100,626,o),
(107,600,o),
(122,600,qs),
(135,600,o),
(166,599,o),
(178,594,qs),
(188,590,o),
(200,576,o),
(200,565,qs),
(201,533,o),
(194,507,o),
(176,500,o),
(152,500,qs),
(143,500,ls),
(124,500,o),
(108,496,o),
(100,480,o),
(100,460,qs),
(100,62,ls),
(100,30,o),
(103,8,o),
(116,0,o),
(133,0,qs),
(149,0,ls),
(175,0,o),
(193,3,o),
(200,16,o),
(200,34,qs),
(200,371,ls),
(200,403,o),
(201,454,o),
(207,482,o),
(214,489,qs),
(225,500,o),
(251,500,qs),
(279,500,o),
(300,482,o),
(300,454,qs),
(300,425,o),
(305,404,o),
(318,399,o),
(336,400,qs),
(346,400,ls),
(371,400,o),
(400,388,o),
(400,368,qs),
(400,334,o),
(403,309,o),
(415,300,o),
(431,300,qs),
(454,300,o),
(481,297,o),
(500,282,o),
(500,265,qs),
(500,75,ls),
(500,36,o),
(504,8,o),
(517,0,o),
(536,0,qs),
(570,0,o),
(593,4,o),
(600,19,o),
(600,40,qs),
(600,261,ls),
(600,285,o),
(584,300,o),
(558,300,qs),
(541,300,ls),
(527,301,o),
(509,309,o),
(500,329,o),
(500,346,qs),
(500,377,o),
(510,400,o),
(529,400,qs),
(560,400,o),
(587,403,o),
(600,418,o),
(600,436,qs),
(600,665,ls),
(600,685,o),
(585,700,o),
(559,700,qs),
(528,700,o),
(510,697,o),
(500,679,o),
(500,654,qs),
(500,464,ls),
(500,431,o),
(488,400,o),
(469,400,qs),
(440,400,o),
(414,404,o),
(400,420,o),
(400,438,qs),
(400,469,o),
(392,494,o),
(374,500,o),
(350,500,qs),
(330,500,o),
(309,506,o),
(300,525,o),
(300,544,qs),
(300,572,o),
(294,593,o),
(275,600,o),
(250,600,qs),
(220,600,o),
(200,621,o),
(200,651,qs),
(200,662,ls),
(200,680,o),
(198,694,o),
(185,700,o),
(170,700,qs)
);
}
);
width = 800;
},
{
layerId = "B9A38041-4120-40BB-8A36-A48F98B8CF9F";
shapes = (
{
closed = 1;
nodes = (
(100,700,l),
(100,667,o),
(100,634,o),
(100,600,q),
(102,600,ls),
(110,600,o),
(136,599,o),
(152,600,qs),
(168,601,o),
(187,621,o),
(194,635,qs),
(197,642,o),
(200,641,o),
(200,630,qs),
(200,607,o),
(200,561,o),
(200,518,o),
(199,500,q),
(176,500,ls),
(157,500,o),
(139,500,o),
(120,500,o),
(101,500,q),
(100,0,l),
(108,0,o),
(117,0,o),
(125,0,o),
(133,0,qs),
(149,0,ls),
(162,0,o),
(175,0,o),
(187,0,o),
(200,0,q),
(202,480,ls),
(202,500,o),
(204,520,o),
(207,518,o),
(211,512,qs),
(217,500,o),
(221,500,qs),
(246,500,o),
(271,500,o),
(296,500,q),
(296,475,o),
(297,451,o),
(297,426,o),
(297,401,qs),
(297,400,l),
(331,400,o),
(365,400,o),
(400,400,q),
(400,375,o),
(400,350,o),
(400,325,o),
(400,300,q),
(404,342,o),
(449,386,o),
(497,394,o),
(497,385,qs),
(500,0,l),
(509,0,o),
(518,0,o),
(527,0,o),
(536,0,qs),
(552,0,o),
(568,0,o),
(584,0,o),
(600,0,q),
(600,300,l),
(570,300,o),
(539,300,o),
(508,300,q),
(507,298,ls),
(505,295,o),
(503,299,o),
(503,339,o),
(505,376,qs),
(506,392,o),
(515,400,o),
(538,400,qs),
(554,400,o),
(569,400,o),
(585,400,o),
(600,400,q),
(600,700,l),
(586,700,o),
(573,700,o),
(559,700,qs),
(544,700,o),
(530,700,o),
(515,700,o),
(500,700,q),
(498,404,l),
(466,404,o),
(433,404,o),
(400,404,q),
(400,407,o),
(400,410,o),
(400,413,o),
(400,416,q),
(392,414,o),
(384,412,o),
(376,409,o),
(368,407,q),
(336,406,o),
(307,421,o),
(300,458,o),
(300,500,qs),
(300,525,o),
(300,550,o),
(300,575,o),
(300,600,q),
(268,579,o),
(237,558,o),
(204,536,q),
(204,550,ls),
(204,588,o),
(205,625,o),
(205,663,o),
(205,700,q)
);
}
);
width = 800;
}
);
note = N;
unicode = (78,110);
},
{
glyphname = O;
lastChange = "2025-10-01 15:58:07 +0000";
layers = (
{
layerId = m01;
shapes = (
{
closed = 1;
nodes = (
(251,700,ls),
(222,701,o),
(200,692,o),
(200,673,qs),
(200,670,o),
(200,668,o),
(200,665,qs),
(201,636,o),
(188,599,o),
(164,600,qs),
(145,601,o),
(114,600,o),
(100,589,o),
(100,576,qs),
(100,571,o),
(100,565,qs),
(101,535,o),
(90,501,o),
(67,500,qs),
(51,500,ls),
(23,500,o),
(0,489,o),
(0,466,qs),
(0,251,ls),
(0,226,o),
(5,205,o),
(18,200,o),
(35,200,qs),
(41,200,o),
(46,200,qs),
(72,201,o),
(100,193,o),
(100,178,qs),
(100,133,ls),
(100,110,o),
(112,100,o),
(135,100,qs),
(147,100,o),
(173,97,o),
(182,94,qs),
(191,90,o),
(200,76,o),
(200,64,qs),
(200,32,o),
(203,9,o),
(219,-1,o),
(240,0,qs),
(466,0,ls),
(489,0,o),
(501,12,o),
(500,34,qs),
(499,81,o),
(511,93,qs),
(515,97,o),
(525,100,o),
(531,100,qs),
(582,100,ls),
(596,100,o),
(601,127,o),
(600,155,qs),
(599,184,o),
(610,200,o),
(626,200,qs),
(670,200,o),
(700,208,o),
(700,226,qs),
(700,466,ls),
(700,486,o),
(688,500,o),
(668,500,qs),
(642,500,o),
(617,502,o),
(599,517,o),
(599,533,qs),
(599,547,ls),
(600,574,o),
(591,601,o),
(571,601,qs),
(564,601,o),
(557,601,qs),
(528,600,o),
(502,611,o),
(501,635,qs),
(500,664,o),
(496,686,o),
(481,700,o),
(462,700,qs)
);
},
{
closed = 1;
nodes = (
(466,600,ls),
(489,600,o),
(500,573,o),
(500,545,qs),
(500,530,ls),
(501,509,o),
(519,499,o),
(541,500,qs),
(551,500,ls),
(574,500,o),
(600,478,o),
(600,457,qs),
(600,242,ls),
(600,216,o),
(561,200,o),
(528,200,qs),
(514,200,o),
(502,189,o),
(500,166,o),
(500,135,qs),
(500,115,o),
(483,107,qs),
(476,103,o),
(455,100,o),
(441,100,qs),
(225,100,ls),
(216,100,o),
(205,105,o),
(203,110,qs),
(200,117,o),
(200,132,qs),
(200,175,ls),
(200,191,o),
(185,200,o),
(170,200,qs),
(118,201,ls),
(105,201,o),
(100,223,o),
(100,253,qs),
(100,257,o),
(100,262,o),
(100,266,qs),
(100,478,l),
(101,491,o),
(135,499,o),
(164,500,qs),
(174,500,ls),
(191,501,o),
(200,511,o),
(200,523,qs),
(200,578,ls),
(200,594,o),
(218,600,o),
(251,599,qs),
(259,599,o),
(268,599,o),
(276,599,qs)
);
}
);
width = 800;
},
{
layerId = "B9A38041-4120-40BB-8A36-A48F98B8CF9F";
shapes = (
{
closed = 1;
nodes = (
(200,700,l),
(200,670,o),
(200,639,o),
(200,608,qs),
(200,591,o),
(197,586,o),
(192,591,qs),
(189,594,o),
(180,600,o),
(174,600,qs),
(156,600,o),
(137,600,o),
(119,600,o),
(100,600,q),
(100,592,o),
(99,588,q),
(96,554,o),
(50,500,o),
(0,500,q),
(0,499,ls),
(0,488,o),
(0,477,o),
(0,466,qs),
(0,200,l),
(20,200,o),
(40,200,o),
(59,200,o),
(79,200,qs),
(86,200,o),
(93,207,qs),
(96,210,o),
(99,207,o),
(99,197,qs),
(100,98,l),
(133,98,o),
(166,98,o),
(200,98,qs),
(211,98,o),
(217,96,o),
(212,94,qs),
(208,92,o),
(200,84,o),
(200,80,qs),
(200,60,o),
(200,40,o),
(200,20,o),
(200,0,q),
(500,0,l),
(500,22,o),
(500,45,o),
(500,68,qs),
(500,86,o),
(479,96,qs),
(477,97,o),
(478,98,o),
(483,98,qs),
(602,97,l),
(602,140,o),
(601,183,o),
(601,228,q),
(601,219,o),
(612,200,o),
(626,200,qs),
(650,200,o),
(675,200,o),
(700,200,q),
(700,500,l),
(695,500,o),
(691,500,o),
(686,500,qs),
(650,500,o),
(620,508,o),
(601,550,o),
(600,600,q),
(598,600,ls),
(571,600,o),
(545,601,o),
(517,601,qs),
(515,601,o),
(512,600,qs),
(508,599,o),
(504,592,o),
(503,587,q),
(503,603,o),
(502,641,o),
(501,681,o),
(500,700,q)
);
},
{
closed = 1;
nodes = (
(494,600,ls),
(498,600,o),
(500,530,o),
(500,506,qs),
(500,500,l),
(514,500,o),
(527,500,o),
(541,500,qs),
(543,500,l),
(565,551,o),
(595,608,o),
(595,593,qs),
(599,164,l),
(595,179,o),
(546,200,o),
(500,200,q),
(500,181,o),
(500,163,o),
(500,144,o),
(500,125,qs),
(500,115,o),
(521,106,q),
(528,104,o),
(523,102,o),
(513,102,qs),
(193,102,ls),
(186,102,o),
(183,103,o),
(186,104,qs),
(200,110,o),
(200,114,qs),
(200,200,l),
(190,200,o),
(180,200,o),
(170,200,qs),
(118,201,ls),
(115,201,o),
(111,195,o),
(109,192,qs),
(107,188,o),
(105,197,o),
(105,211,qs),
(104,596,l),
(107,595,o),
(131,564,o),
(153,531,qs),
(174,500,l),
(185,500,o),
(196,500,o),
(208,500,q),
(209,594,ls),
(209,595,o),
(209,595,o),
(209,596,qs),
(208,599,o),
(220,601,o),
(248,600,qs)
);
}
);
width = 800;
}
);
note = O;
unicode = (79,111);
},
{
glyphname = P;
lastChange = "2025-10-01 15:58:07 +0000";
layers = (
{
layerId = m01;
shapes = (
{
closed = 1;
nodes = (
(258,700,ls),
(224,701,o),
(200,690,o),
(200,671,qs),
(200,667,o),
(200,664,o),
(200,660,qs),
(201,631,o),
(190,599,o),
(168,600,qs),
(131,601,o),
(100,586,o),
(100,560,qs),
(100,449,ls),
(100,426,o),
(118,400,o),
(142,400,qs),
(156,400,o),
(177,397,o),
(184,393,qs),
(199,386,o),
(199,368,qs),
(200,338,o),
(185,300,o),
(154,300,qs),
(128,300,o),
(107,295,o),
(100,278,o),
(100,259,qs),
(100,34,ls),
(100,10,o),
(115,-1,o),
(139,0,qs),
(150,0,l),
(163,0,ls),
(185,-1,o),
(200,9,o),
(200,33,qs),
(200,247,ls),
(200,271,o),
(206,294,o),
(218,298,qs),
(226,300,o),
(234,300,qs),
(556,300,ls),
(576,300,o),
(592,304,o),
(600,320,o),
(600,339,qs),
(600,350,ls),
(600,380,o),
(607,400,o),
(624,400,qs),
(667,400,o),
(694,403,o),
(700,416,o),
(700,437,qs),
(700,553,ls),
(700,575,o),
(698,591,o),
(685,600,o),
(669,600,qs),
(665,600,o),
(660,600,qs),
(631,599,o),
(600,612,o),
(600,639,qs),
(600,670,o),
(591,694,o),
(566,700,o),
(533,700,qs)
);
},
{
closed = 1;
nodes = (
(235,600,l),
(540,600,l),
(551,600,ls),
(580,600,o),
(599,590,o),
(600,566,qs),
(600,449,ls),
(600,443,o),
(600,437,qs),
(601,422,o),
(596,408,o),
(575,400,o),
(549,400,qs),
(266,400,ls),
(233,400,o),
(213,402,o),
(206,410,qs),
(202,414,o),
(199,430,o),
(199,442,qs),
(200,564,ls),
(200,584,o),
(210,600,o),
(219,600,qs)
);
}
);
width = 800;
},
{
layerId = "B9A38041-4120-40BB-8A36-A48F98B8CF9F";
shapes = (
{
closed = 1;
nodes = (
(200,700,l),
(199,661,o),
(199,623,o),
(198,583,qs),
(198,577,o),
(197,575,o),
(196,578,qs),
(194,586,o),
(186,600,o),
(180,600,qs),
(154,600,o),
(127,600,o),
(100,600,q),
(100,398,l),
(134,398,o),
(167,398,o),
(202,398,qs),
(212,398,o),
(218,398,o),
(214,396,q),
(200,393,o),
(200,389,qs),
(200,340,o),
(159,298,o),
(100,300,q),
(100,290,o),
(100,280,o),
(100,269,o),
(100,259,qs),
(100,0,l),
(113,0,o),
(126,0,o),
(139,0,qs),
(150,0,l),
(163,0,ls),
(178,0,o),
(193,0,o),
(208,0,q),
(208,388,ls),
(208,390,o),
(220,391,o),
(235,391,qs),
(247,391,o),
(258,391,qs),
(579,392,ls),
(584,392,o),
(590,392,o),
(595,392,o),
(600,392,q),
(600,393,ls),
(600,395,o),
(600,397,o),
(600,399,q),
(625,399,o),
(650,399,o),
(675,399,o),
(700,399,q),
(700,600,l),
(680,600,o),
(660,600,o),
(639,600,o),
(619,600,qs),
(609,600,o),
(603,569,qs),
(602,564,o),
(601,567,o),
(601,578,qs),
(601,609,o),
(601,639,o),
(600,670,o),
(600,700,q)
);
},
{
closed = 1;
nodes = (
(202,695,l),
(591,695,l),
(594,695,l),
(595,696,o),
(597,694,o),
(597,692,qs),
(598,412,ls),
(598,407,o),
(614,402,q),
(617,402,o),
(618,400,o),
(610,400,o),
(602,400,qs),
(234,400,ls),
(202,400,o),
(181,401,o),
(189,403,qs),
(193,404,o),
(201,408,o),
(201,409,qs),
(201,666,ls),
(201,677,o),
(201,687,o),
(201,698,q)
);
}
);
width = 800;
}
);
note = P;
unicode = (80,112);
},
{
glyphname = Q;
lastChange = "2025-10-01 15:58:07 +0000";
layers = (
{
layerId = m01;
shapes = (
{
closed = 1;
nodes = (
(276,700,l),
(257,700,ls),
(231,700,o),
(209,696,o),
(200,681,o),
(200,663,qs),
(201,631,o),
(176,600,o),
(148,600,qs),
(127,600,o),
(108,591,o),
(100,564,o),
(100,534,qs),
(100,167,ls),
(100,133,o),
(110,105,o),
(128,100,o),
(152,100,qs),
(170,100,o),
(190,94,o),
(194,87,qs),
(200,78,o),
(200,61,qs),
(200,32,o),
(205,10,o),
(228,1,o),
(256,0,qs),
(452,0,ls),
(475,0,o),
(493,4,o),
(500,19,o),
(500,39,qs),
(500,73,o),
(510,100,o),
(532,100,qs),
(538,100,o),
(543,100,o),
(549,100,qs),
(574,101,o),
(593,96,o),
(600,76,o),
(600,50,qs),
(600,23,o),
(607,3,o),
(623,0,o),
(651,0,qs),
(662,0,ls),
(681,0,o),
(695,4,o),
(700,23,o),
(700,47,qs),
(700,61,ls),
(701,84,o),
(691,99,o),
(668,99,qs),
(655,99,o),
(629,99,o),
(611,107,o),
(606,116,qs),
(600,127,o),
(600,149,qs),
(600,176,o),
(610,197,o),
(627,200,o),
(654,200,qs),
(679,200,o),
(694,204,o),
(700,225,o),
(700,256,qs),
(700,549,ls),
(700,571,o),
(694,591,o),
(673,600,o),
(649,600,qs),
(632,600,o),
(611,612,o),
(601,633,o),
(600,648,qs),
(599,675,o),
(597,692,o),
(582,700,o),
(563,700,qs)
);
},
{
closed = 1;
nodes = (
(283,600,ls),
(329,601,o),
(428,600,o),
(472,600,qs),
(522,600,ls),
(549,600,o),
(579,593,o),
(599,565,o),
(600,535,qs),
(600,280,ls),
(600,275,o),
(600,270,o),
(600,265,qs),
(601,240,o),
(597,216,o),
(578,203,o),
(557,203,qs),
(527,203,o),
(508,201,o),
(500,188,o),
(500,171,qs),
(500,146,o),
(494,115,o),
(482,106,qs),
(472,100,o),
(456,100,qs),
(268,100,l),
(238,102,o),
(227,106,qs),
(212,111,o),
(200,138,o),
(200,165,qs),
(200,449,ls),
(200,510,o),
(204,567,o),
(226,600,o),
(250,600,qs)
);
}
);
width = 800;
},
{
layerId = "B9A38041-4120-40BB-8A36-A48F98B8CF9F";
shapes = (
{
closed = 1;
nodes = (
(200,700,l),
(200,700,l),
(200,691,o),
(201,682,o),
(201,672,o),
(201,663,qs),
(202,633,o),
(142,599,o),
(100,600,q),
(100,584,o),
(100,567,o),
(100,551,o),
(100,534,qs),
(100,100,l),
(119,100,o),
(138,100,o),
(157,100,o),
(176,100,qs),
(182,100,o),
(192,124,o),
(197,144,qs),
(200,159,o),
(200,147,qs),
(200,110,o),
(200,74,o),
(200,37,o),
(200,0,q),
(500,0,l),
(500,10,o),
(500,20,o),
(500,29,o),
(500,39,qs),
(500,66,o),
(544,101,o),
(571,100,qs),
(601,100,o),
(620,98,o),
(612,95,qs),
(609,94,o),
(604,93,o),
(600,91,o),
(600,90,qs),
(600,68,o),
(600,45,o),
(600,23,o),
(600,0,q),
(602,0,ls),
(627,0,o),
(651,0,o),
(676,0,o),
(700,0,q),
(700,16,ls),
(700,45,o),
(700,73,o),
(700,103,q),
(646,104,o),
(587,107,o),
(582,110,o),
(590,114,qs),
(601,118,o),
(601,121,qs),
(601,141,o),
(602,161,o),
(602,180,o),
(602,200,q),
(627,200,o),
(651,200,o),
(676,200,o),
(700,200,q),
(700,549,ls),
(700,562,o),
(700,575,o),
(700,587,o),
(700,600,q),
(683,600,o),
(635,621,o),
(600,651,o),
(600,665,qs),
(600,674,o),
(600,683,o),
(600,691,o),
(600,700,q)
);
},
{
closed = 1;
nodes = (
(203,696,l),
(263,697,o),
(435,697,o),
(518,697,qs),
(597,697,l),
(597,671,o),
(598,614,o),
(599,559,o),
(600,535,qs),
(598,170,ls),
(598,161,o),
(597,157,o),
(593,162,qs),
(585,172,o),
(566,189,o),
(528,202,o),
(500,200,q),
(499,155,o),
(498,110,o),
(497,64,o),
(496,19,qs),
(496,11,o),
(493,8,o),
(488,9,q),
(486,10,o),
(483,10,qs),
(209,10,ls),
(206,10,o),
(205,9,qs),
(204,8,o),
(203,11,o),
(203,15,qs),
(203,461,ls),
(203,492,o),
(203,523,o),
(203,553,o),
(203,584,qs)
);
}
);
width = 800;
}
);
note = Q;
unicode = (81,113);
},
{
glyphname = R;
lastChange = "2025-10-01 15:58:07 +0000";
layers = (
{
layerId = m01;
shapes = (
{
closed = 1;
nodes = (
(273,700,ls),
(237,700,o),
(210,696,o),
(200,681,o),
(200,661,qs),
(200,636,o),
(198,616,o),
(180,600,o),
(159,600,qs),
(132,600,o),
(109,595,o),
(100,579,o),
(100,559,qs),
(100,449,ls),
(100,425,o),
(106,405,o),
(122,400,o),
(144,400,qs),
(170,400,o),
(191,397,o),
(196,389,qs),
(200,381,o),
(200,365,qs),
(200,360,o),
(200,354,qs),
(200,333,o),
(196,312,o),
(179,300,o),
(159,300,qs),
(132,300,o),
(110,297,o),
(100,284,o),
(100,269,qs),
(100,34,ls),
(100,11,o),
(120,0,o),
(146,0,qs),
(172,0,o),
(192,3,o),
(200,17,o),
(200,34,qs),
(200,264,ls),
(200,282,o),
(215,300,o),
(234,300,qs),
(438,300,ls),
(465,300,o),
(500,279,o),
(500,256,qs),
(500,226,o),
(504,204,o),
(514,200,o),
(530,200,qs),
(548,200,o),
(575,197,o),
(583,193,qs),
(592,189,o),
(600,176,o),
(600,165,qs),
(600,30,ls),
(600,9,o),
(622,0,o),
(647,0,qs),
(680,0,o),
(700,9,o),
(700,30,qs),
(700,156,ls),
(700,180,o),
(698,194,o),
(685,200,o),
(668,200,qs),
(631,200,o),
(620,204,qs),
(609,209,o),
(600,233,o),
(600,257,qs),
(600,279,o),
(607,296,o),
(627,300,o),
(654,300,qs),
(675,300,o),
(692,304,o),
(700,322,o),
(700,344,qs),
(700,574,ls),
(700,593,o),
(685,600,o),
(656,600,qs),
(628,600,o),
(600,618,o),
(600,643,qs),
(600,670,o),
(596,691,o),
(579,700,o),
(557,700,qs)
);
},
{
closed = 1;
nodes = (
(271,600,l),
(547,600,ls),
(573,600,o),
(591,597,o),
(600,577,o),
(600,552,qs),
(600,442,ls),
(600,425,o),
(599,419,qs),
(597,409,o),
(584,400,o),
(569,400,qs),
(254,400,ls),
(235,400,o),
(213,405,o),
(207,412,qs),
(199,421,o),
(199,450,qs),
(200,569,ls),
(200,600,o),
(235,600,qs)
);
}
);
width = 800;
},
{
layerId = "B9A38041-4120-40BB-8A36-A48F98B8CF9F";
shapes = (
{
closed = 1;
nodes = (
(200,700,l),
(200,699,o),
(200,690,o),
(200,673,o),
(200,661,qs),
(200,629,o),
(182,604,o),
(149,600,o),
(100,600,q),
(100,590,o),
(100,580,o),
(100,569,o),
(100,559,qs),
(100,400,l),
(118,400,o),
(136,400,o),
(154,400,o),
(172,400,qs),
(196,400,o),
(210,399,o),
(205,397,qs),
(200,395,o),
(200,394,qs),
(200,381,o),
(199,375,qs),
(197,345,o),
(176,312,o),
(135,299,o),
(100,300,q),
(100,292,o),
(100,285,o),
(100,277,o),
(100,269,qs),
(100,0,l),
(115,0,o),
(130,0,o),
(146,0,qs),
(161,0,o),
(176,0,o),
(190,0,o),
(205,0,q),
(205,349,ls),
(205,368,o),
(209,396,o),
(213,396,qs),
(696,396,l),
(631,364,o),
(567,333,o),
(500,300,q),
(500,275,o),
(500,250,o),
(500,225,o),
(500,200,q),
(534,199,o),
(574,224,o),
(589,242,qs),
(597,251,o),
(600,246,o),
(600,224,qs),
(600,0,l),
(616,0,o),
(631,0,o),
(647,0,qs),
(664,0,o),
(682,0,o),
(700,0,q),
(700,200,l),
(680,200,o),
(659,200,o),
(639,200,o),
(618,200,qs),
(613,200,o),
(608,182,qs),
(605,172,o),
(603,176,o),
(603,199,qs),
(603,224,o),
(603,250,o),
(603,275,o),
(603,300,q),
(627,300,o),
(652,300,o),
(676,300,o),
(700,300,q),
(700,574,ls),
(700,583,o),
(700,591,o),
(700,600,q),
(657,598,o),
(600,618,o),
(600,643,qs),
(600,657,o),
(600,672,o),
(600,686,o),
(600,700,q)
);
},
{
closed = 1;
nodes = (
(206,695,l),
(594,695,l),
(594,677,o),
(594,637,o),
(594,596,o),
(595,576,qs),
(600,412,ls),
(600,409,o),
(621,407,qs),
(638,404,o),
(631,402,o),
(584,402,qs),
(206,403,ls),
(191,403,o),
(183,404,o),
(189,406,qs),
(205,409,o),
(205,414,qs),
(206,559,ls),
(206,580,o),
(206,600,qs)
);
}
);
width = 800;
}
);
note = R;
unicode = (82,114);
},
{
glyphname = S;
lastChange = "2025-10-01 15:58:07 +0000";
layers = (
{
layerId = m01;
shapes = (
{
closed = 1;
nodes = (
(263,700,l),
(246,700,ls),
(217,700,o),
(200,691,o),
(200,670,qs),
(200,652,o),
(197,628,o),
(192,619,qs),
(183,600,o),
(156,600,qs),
(130,600,o),
(111,597,o),
(100,583,o),
(100,565,qs),
(100,446,ls),
(100,422,o),
(107,403,o),
(122,400,o),
(145,400,qs),
(159,400,o),
(183,399,o),
(189,395,qs),
(195,391,o),
(200,375,o),
(200,361,qs),
(200,326,o),
(214,300,o),
(240,300,qs),
(550,300,ls),
(569,300,o),
(576,298,qs),
(588,295,o),
(600,278,o),
(600,261,qs),
(600,156,ls),
(600,133,o),
(598,115,o),
(592,109,qs),
(583,100,o),
(556,100,qs),
(243,100,ls),
(234,100,o),
(218,103,o),
(213,106,qs),
(207,110,o),
(200,126,o),
(200,139,qs),
(200,168,o),
(195,193,o),
(185,200,o),
(173,200,qs),
(117,200,ls),
(108,200,o),
(100,188,o),
(100,166,qs),
(100,149,ls),
(100,120,o),
(104,103,o),
(118,100,o),
(145,100,qs),
(158,100,o),
(179,100,o),
(185,97,q),
(193,95,o),
(200,80,o),
(200,65,qs),
(200,28,o),
(205,4,o),
(218,0,o),
(244,0,qs),
(563,0,ls),
(582,0,o),
(596,3,o),
(601,15,o),
(600,30,qs),
(599,52,o),
(602,79,o),
(606,87,qs),
(613,100,o),
(633,100,qs),
(666,99,o),
(691,103,o),
(700,120,o),
(700,142,qs),
(700,267,ls),
(700,290,o),
(683,300,o),
(650,300,qs),
(629,300,o),
(600,311,o),
(600,336,qs),
(600,352,o),
(599,377,o),
(596,384,qs),
(593,394,o),
(577,400,o),
(559,400,qs),
(256,400,ls),
(233,400,o),
(211,405,o),
(200,425,o),
(200,446,qs),
(200,567,ls),
(200,579,o),
(207,587,qs),
(218,600,o),
(243,600,qs),
(557,601,ls),
(576,600,o),
(595,590,o),
(598,572,qs),
(600,556,o),
(600,541,qs),
(600,520,o),
(607,504,o),
(624,500,o),
(646,500,qs),
(673,500,o),
(693,503,o),
(700,516,o),
(700,532,qs),
(700,568,o),
(694,595,o),
(679,600,o),
(656,600,qs),
(647,600,ls),
(628,600,o),
(610,604,o),
(600,620,o),
(600,639,qs),
(600,673,o),
(597,693,o),
(582,700,o),
(559,700,qs)
);
}
);
width = 800;
},
{
layerId = "B9A38041-4120-40BB-8A36-A48F98B8CF9F";
shapes = (
{
closed = 1;
nodes = (
(200,700,l),
(200,697,ls),
(200,663,o),
(200,630,o),
(200,595,qs),
(200,584,o),
(198,578,o),
(196,584,q),
(188,600,o),
(181,600,qs),
(161,600,o),
(141,600,o),
(120,600,o),
(100,600,q),
(100,400,l),
(117,400,o),
(133,400,o),
(150,400,o),
(166,400,qs),
(175,400,o),
(187,416,o),
(193,430,qs),
(196,437,o),
(198,436,o),
(198,423,qs),
(199,382,o),
(199,342,o),
(200,300,q),
(634,299,ls),
(645,299,o),
(634,296,qs),
(620,291,o),
(600,278,o),
(600,266,qs),
(601,109,ls),
(601,94,o),
(597,90,o),
(590,93,qs),
(578,100,o),
(568,100,qs),
(222,100,ls),
(217,100,o),
(209,89,o),
(206,83,qs),
(203,76,o),
(200,77,o),
(200,89,qs),
(200,117,o),
(200,145,o),
(200,172,o),
(200,200,q),
(100,200,l),
(100,167,o),
(100,134,o),
(100,100,q),
(100,100,l),
(117,100,o),
(134,100,o),
(151,100,o),
(168,100,qs),
(175,100,o),
(186,109,o),
(190,115,qs),
(194,120,o),
(197,117,o),
(197,103,qs),
(197,77,o),
(197,52,o),
(197,26,o),
(197,0,q),
(608,0,l),
(608,24,o),
(607,48,o),
(607,72,o),
(606,96,qs),
(605,116,o),
(607,121,o),
(610,116,qs),
(618,100,o),
(628,100,qs),
(646,100,o),
(664,100,o),
(682,100,o),
(700,100,q),
(700,267,ls),
(700,278,o),
(700,289,o),
(700,300,q),
(661,299,o),
(605,316,o),
(605,342,qs),
(605,355,o),
(604,362,o),
(602,353,q),
(594,330,o),
(581,304,o),
(568,304,qs),
(203,304,l),
(203,321,o),
(203,338,o),
(202,355,o),
(202,372,qs),
(202,617,ls),
(202,625,o),
(205,617,q),
(214,600,o),
(220,600,qs),
(572,601,l),
(583,600,o),
(594,628,o),
(597,645,qs),
(598,648,o),
(598,647,qs),
(599,610,o),
(599,574,o),
(600,537,o),
(600,500,q),
(625,500,o),
(650,500,o),
(675,500,o),
(700,500,q),
(700,525,o),
(700,550,o),
(700,575,o),
(700,600,q),
(690,600,ls),
(663,600,o),
(627,604,o),
(600,621,o),
(600,639,qs),
(600,657,o),
(600,683,o),
(599,697,o),
(599,700,q)
);
}
);
width = 800;
}
);
note = S;
unicode = (83,115);
},
{
glyphname = T;
lastChange = "2025-10-01 15:58:07 +0000";
layers = (
{
layerId = m01;
shapes = (
{
closed = 1;
nodes = (
(333,700,l),
(132,700,ls),
(113,699,o),
(101,683,o),
(100,656,qs),
(100,535,ls),
(100,517,o),
(109,502,o),
(125,500,o),
(149,500,qs),
(174,500,o),
(190,502,o),
(200,517,o),
(200,535,qs),
(200,572,o),
(211,600,o),
(230,600,qs),
(367,600,ls),
(386,600,o),
(400,588,o),
(400,563,qs),
(400,33,ls),
(400,16,o),
(405,3,o),
(420,0,o),
(440,0,qs),
(452,0,ls),
(475,0,o),
(493,3,o),
(500,16,o),
(500,32,qs),
(500,574,ls),
(500,592,o),
(518,600,o),
(542,600,qs),
(660,600,ls),
(676,600,o),
(692,593,o),
(700,565,o),
(700,534,qs),
(700,516,o),
(708,502,o),
(724,500,o),
(750,500,qs),
(775,500,o),
(793,503,o),
(800,517,o),
(800,534,qs),
(800,672,ls),
(800,691,o),
(775,701,o),
(751,700,qs),
(741,700,l)
);
}
);
width = 800;
},
{
layerId = "B9A38041-4120-40BB-8A36-A48F98B8CF9F";
shapes = (
{
closed = 1;
nodes = (
(333,700,l),
(100,700,l),
(100,695,o),
(100,673,o),
(100,656,qs),
(100,500,l),
(112,500,o),
(125,500,o),
(137,500,o),
(149,500,qs),
(162,500,o),
(175,500,o),
(187,500,o),
(200,500,q),
(169,564,o),
(137,629,o),
(105,695,q),
(400,694,l),
(400,651,o),
(400,608,o),
(400,563,qs),
(400,0,l),
(410,0,o),
(420,0,o),
(430,0,o),
(440,0,qs),
(452,0,ls),
(464,0,o),
(476,0,o),
(488,0,o),
(500,0,q),
(500,574,ls),
(500,614,o),
(500,653,o),
(500,694,q),
(795,694,l),
(771,646,o),
(748,597,o),
(724,549,o),
(700,500,q),
(713,500,o),
(725,500,o),
(738,500,o),
(750,500,qs),
(763,500,o),
(775,500,o),
(788,500,o),
(800,500,q),
(800,672,ls),
(800,681,o),
(800,690,o),
(800,700,q),
(800,700,l)
);
}
);
width = 800;
}
);
note = T;
unicode = (84,116);
},
{
glyphname = U;
lastChange = "2025-10-01 15:58:07 +0000";
layers = (
{
layerId = m01;
shapes = (
{
closed = 1;
nodes = (
(134,700,ls),
(113,700,o),
(103,698,o),
(100,687,o),
(100,668,qs),
(100,153,ls),
(100,126,o),
(105,106,o),
(121,100,o),
(141,100,qs),
(148,100,ls),
(174,100,o),
(200,90,o),
(200,69,qs),
(200,56,ls),
(200,31,o),
(203,11,o),
(216,0,o),
(232,0,qs),
(560,0,ls),
(579,0,o),
(594,4,o),
(600,23,o),
(600,46,qs),
(600,70,o),
(607,83,qs),
(611,89,o),
(621,97,o),
(636,100,o),
(646,100,qs),
(673,99,o),
(694,104,o),
(700,121,o),
(700,143,qs),
(700,669,ls),
(700,691,o),
(682,700,o),
(650,700,qs),
(628,700,o),
(609,696,o),
(600,680,o),
(600,661,qs),
(600,150,ls),
(600,132,o),
(597,112,o),
(591,106,qs),
(585,100,o),
(571,100,qs),
(235,100,ls),
(219,101,o),
(210,113,qs),
(205,120,o),
(200,144,o),
(200,163,qs),
(200,668,ls),
(200,684,o),
(195,697,o),
(186,700,o),
(174,700,qs)
);
}
);
width = 800;
},
{
layerId = "B9A38041-4120-40BB-8A36-A48F98B8CF9F";
shapes = (
{
closed = 1;
nodes = (
(100,700,l),
(100,692,o),
(100,684,o),
(100,676,o),
(100,668,qs),
(100,100,l),
(129,100,o),
(158,100,o),
(187,100,o),
(216,100,qs),
(222,100,l),
(222,100,o),
(200,94,o),
(200,84,qs),
(200,70,ls),
(200,53,o),
(200,35,o),
(200,18,o),
(200,0,q),
(600,0,l),
(599,6,o),
(599,25,o),
(599,51,o),
(600,66,qs),
(600,78,o),
(582,88,qs),
(577,91,o),
(577,93,o),
(597,95,o),
(615,95,qs),
(636,95,o),
(658,96,o),
(679,96,o),
(700,96,q),
(700,700,l),
(684,700,o),
(667,700,o),
(650,700,qs),
(638,700,o),
(625,700,o),
(613,700,o),
(600,700,q),
(600,128,ls),
(600,116,o),
(623,104,o),
(634,103,qs),
(638,102,o),
(628,102,qs),
(193,102,ls),
(172,102,o),
(178,103,qs),
(192,107,o),
(203,112,o),
(203,118,qs),
(200,668,ls),
(200,676,o),
(200,684,o),
(200,692,o),
(200,700,q)
);
}
);
width = 800;
}
);
note = U;
unicode = (85,117);
},
{
glyphname = V;
lastChange = "2025-10-01 15:58:07 +0000";
layers = (
{
layerId = m01;
shapes = (
{
closed = 1;
nodes = (
(130,700,ls),
(114,700,o),
(102,695,o),
(100,683,o),
(100,664,qs),
(100,256,ls),
(100,225,o),
(104,204,o),
(115,200,o),
(133,200,qs),
(148,200,o),
(178,199,o),
(187,194,qs),
(200,188,o),
(200,169,qs),
(200,134,o),
(203,111,o),
(217,100,o),
(236,100,qs),
(246,100,ls),
(276,100,o),
(300,92,o),
(300,75,qs),
(300,49,ls),
(300,17,o),
(308,0,o),
(326,0,qs),
(470,0,ls),
(490,0,o),
(500,15,o),
(500,42,qs),
(500,74,o),
(510,100,o),
(532,100,qs),
(564,100,o),
(588,103,o),
(600,121,o),
(600,143,qs),
(600,159,o),
(602,183,o),
(605,189,qs),
(611,200,o),
(634,200,qs),
(647,200,ls),
(671,200,o),
(690,203,o),
(700,217,o),
(700,234,qs),
(700,664,ls),
(700,682,o),
(690,697,o),
(671,700,o),
(648,700,qs),
(626,700,o),
(608,697,o),
(600,682,o),
(600,664,qs),
(600,258,ls),
(600,244,o),
(594,222,o),
(588,215,qs),
(575,197,o),
(551,199,qs),
(500,201,o),
(500,168,qs),
(500,157,ls),
(501,129,o),
(488,100,o),
(460,100,qs),
(333,100,ls),
(319,100,o),
(300,133,o),
(300,157,qs),
(300,179,o),
(296,196,o),
(284,200,o),
(268,200,qs),
(264,200,o),
(259,200,qs),
(232,199,o),
(200,214,o),
(200,242,qs),
(200,664,ls),
(200,687,o),
(191,700,o),
(179,700,qs)
);
}
);
width = 800;
},
{
layerId = "B9A38041-4120-40BB-8A36-A48F98B8CF9F";
shapes = (
{
closed = 1;
nodes = (
(100,700,l),
(100,691,o),
(100,682,o),
(100,673,o),
(100,664,qs),
(100,200,l),
(118,200,o),
(137,200,o),
(155,200,o),
(173,200,qs),
(182,200,o),
(193,224,o),
(197,239,qs),
(200,253,o),
(200,234,qs),
(200,201,o),
(200,167,o),
(200,134,o),
(200,100,q),
(202,102,ls),
(233,133,o),
(265,165,o),
(297,197,q),
(297,162,ls),
(297,109,o),
(298,55,o),
(298,0,q),
(502,0,l),
(502,64,o),
(503,129,o),
(503,195,q),
(536,164,o),
(568,132,o),
(602,100,q),
(602,126,o),
(602,152,o),
(602,178,o),
(602,204,qs),
(602,217,o),
(603,224,o),
(605,219,qs),
(613,200,o),
(622,200,qs),
(635,200,ls),
(651,200,o),
(668,200,o),
(684,200,o),
(700,200,q),
(700,700,l),
(687,700,o),
(674,700,o),
(661,700,o),
(648,700,qs),
(636,700,o),
(623,700,o),
(611,700,o),
(598,700,q),
(597,191,ls),
(597,181,o),
(595,175,o),
(593,181,q),
(584,199,o),
(572,199,qs),
(536,200,o),
(500,200,q),
(500,185,ls),
(500,125,o),
(500,66,o),
(500,4,q),
(302,4,l),
(301,69,o),
(301,133,o),
(300,200,q),
(289,200,o),
(265,200,o),
(242,200,o),
(231,200,qs),
(217,200,o),
(207,180,qs),
(204,174,o),
(202,178,o),
(202,195,qs),
(202,664,ls),
(202,676,o),
(202,688,o),
(202,700,q)
);
}
);
width = 800;
}
);
note = V;
unicode = (86,118);
},
{
glyphname = W;
lastChange = "2025-10-01 15:58:07 +0000";
layers = (
{
layerId = m01;
shapes = (
{
closed = 1;
nodes = (
(48,700,ls),
(23,700,o),
(6,697,o),
(0,683,o),
(0,664,qs),
(0,258,l),
(0,244,ls),
(0,222,o),
(3,206,o),
(15,200,o),
(30,200,qs),
(53,200,o),
(81,196,o),
(90,188,qs),
(95,184,o),
(100,171,o),
(100,162,qs),
(100,123,o),
(103,104,o),
(117,100,o),
(145,100,qs),
(171,100,o),
(190,98,o),
(200,87,o),
(200,72,qs),
(200,27,ls),
(200,8,o),
(221,0,o),
(244,0,qs),
(251,0,ls),
(279,0,o),
(300,8,o),
(300,28,qs),
(300,34,o),
(300,40,qs),
(299,71,o),
(310,101,o),
(332,101,qs),
(371,101,o),
(400,92,o),
(400,73,qs),
(400,31,o),
(403,6,o),
(417,0,o),
(440,0,qs),
(468,0,o),
(488,2,o),
(500,15,o),
(500,32,qs),
(500,63,o),
(524,100,o),
(549,100,qs),
(560,100,ls),
(583,99,o),
(600,109,o),
(600,131,qs),
(600,154,o),
(610,186,o),
(621,194,qs),
(630,200,o),
(646,200,qs),
(672,200,o),
(690,202,o),
(700,219,o),
(700,239,qs),
(700,664,ls),
(700,682,o),
(693,697,o),
(674,700,o),
(648,700,qs),
(637,700,ls),
(620,701,o),
(606,698,o),
(600,683,o),
(600,665,qs),
(600,248,ls),
(600,237,o),
(597,221,o),
(593,215,qs),
(588,207,o),
(568,200,o),
(551,200,qs),
(526,200,o),
(508,198,o),
(500,187,o),
(500,173,qs),
(500,161,ls),
(501,132,o),
(491,99,o),
(469,100,qs),
(429,100,ls),
(416,100,o),
(410,107,qs),
(405,113,o),
(400,138,o),
(400,159,qs),
(400,358,ls),
(400,379,o),
(391,396,o),
(371,400,o),
(345,400,qs),
(323,400,o),
(308,398,o),
(300,381,o),
(300,361,qs),
(300,143,ls),
(300,139,o),
(300,134,qs),
(300,116,o),
(295,104,o),
(276,100,o),
(249,100,qs),
(223,100,o),
(203,108,o),
(200,125,o),
(200,153,qs),
(200,176,o),
(194,195,o),
(182,200,o),
(168,200,qs),
(122,200,ls),
(113,200,o),
(104,205,o),
(102,214,qs),
(100,223,o),
(100,249,o),
(100,268,qs),
(100,642,ls),
(100,678,o),
(92,700,o),
(75,700,qs)
);
}
);
width = 800;
},
{
layerId = "B9A38041-4120-40BB-8A36-A48F98B8CF9F";
shapes = (
{
closed = 1;
nodes = (
(0,700,l),
(0,691,o),
(0,682,o),
(0,673,o),
(0,664,qs),
(0,200,l),
(1,200,ls),
(13,200,o),
(26,200,o),
(38,200,o),
(50,200,qs),
(69,200,o),
(90,233,o),
(95,252,qs),
(96,256,o),
(97,255,o),
(97,248,qs),
(97,211,o),
(98,174,o),
(98,137,o),
(98,100,q),
(123,124,o),
(148,148,o),
(173,172,o),
(198,196,q),
(198,0,l),
(213,0,o),
(228,0,o),
(243,0,qs),
(251,0,ls),
(267,0,o),
(283,0,o),
(300,0,q),
(300,8,o),
(301,12,q),
(304,42,o),
(330,100,o),
(348,101,qs),
(371,102,o),
(400,31,o),
(400,0,q),
(410,0,o),
(420,0,o),
(430,0,o),
(440,0,qs),
(455,0,o),
(470,0,o),
(485,0,o),
(500,0,q),
(500,65,o),
(500,130,o),
(500,197,q),
(504,193,ls),
(537,162,o),
(569,132,o),
(603,100,q),
(603,193,o),
(605,227,o),
(608,213,qs),
(610,200,o),
(612,200,qs),
(634,200,o),
(656,200,o),
(678,200,o),
(700,200,q),
(700,700,l),
(687,700,o),
(674,700,o),
(661,700,o),
(648,700,qs),
(637,700,ls),
(628,700,o),
(619,700,o),
(609,700,o),
(600,700,q),
(600,177,ls),
(600,167,o),
(598,169,o),
(596,174,qs),
(592,186,o),
(584,200,o),
(578,200,qs),
(558,200,o),
(538,200,o),
(518,200,o),
(498,200,q),
(498,201,ls),
(498,136,o),
(498,70,o),
(498,3,q),
(408,95,ls),
(404,99,o),
(391,101,qs),
(383,103,o),
(384,105,o),
(400,108,q),
(400,400,l),
(386,400,o),
(373,400,o),
(359,400,o),
(345,400,qs),
(334,400,o),
(323,400,o),
(311,400,o),
(300,400,q),
(300,110,ls),
(300,107,o),
(312,105,qs),
(315,104,o),
(316,103,o),
(305,102,o),
(293,101,q),
(270,77,o),
(247,53,o),
(223,28,o),
(200,4,q),
(200,53,o),
(200,102,o),
(200,151,o),
(200,200,q),
(143,200,ls),
(130,200,o),
(115,176,o),
(107,155,qs),
(104,146,o),
(102,148,o),
(102,165,qs),
(100,642,ls),
(100,661,o),
(99,680,o),
(99,700,q)
);
}
);
width = 800;
}
);
note = W;
unicode = (87,119);
},
{
glyphname = X;
lastChange = "2025-10-01 15:58:07 +0000";
layers = (
{
layerId = m01;
shapes = (
{
closed = 1;
nodes = (
(145,700,l),
(133,700,ls),
(114,701,o),
(100,692,o),
(100,672,qs),
(100,542,l),
(100,535,ls),
(100,517,o),
(108,500,o),
(126,500,qs),
(129,500,o),
(131,500,o),
(134,500,o),
(136,500,qs),
(169,500,o),
(200,492,o),
(200,475,qs),
(200,459,ls),
(199,426,o),
(208,400,o),
(229,400,qs),
(232,400,o),
(235,400,o),
(237,400,o),
(240,400,qs),
(272,400,o),
(301,392,o),
(301,374,qs),
(301,349,o),
(297,321,o),
(278,300,o),
(256,300,qs),
(229,300,o),
(208,298,o),
(200,287,o),
(200,273,qs),
(200,200,o),
(154,200,qs),
(120,200,o),
(100,192,o),
(100,172,qs),
(100,29,ls),
(100,9,o),
(120,0,o),
(149,0,qs),
(157,0,ls),
(182,0,o),
(200,9,o),
(200,29,qs),
(200,167,ls),
(200,185,o),
(213,200,o),
(232,200,qs),
(275,200,ls),
(289,200,o),
(296,202,o),
(300,214,o),
(300,231,qs),
(300,256,o),
(303,282,o),
(321,300,o),
(341,300,qs),
(463,300,l),
(472,300,ls),
(490,299,o),
(500,292,o),
(500,276,qs),
(500,261,ls),
(500,224,o),
(509,200,o),
(530,200,qs),
(563,200,o),
(600,186,o),
(600,162,qs),
(600,41,ls),
(600,19,o),
(605,3,o),
(620,0,o),
(640,0,qs),
(653,0,l),
(662,0,ls),
(678,0,o),
(692,4,o),
(700,21,o),
(700,41,qs),
(700,176,ls),
(700,193,o),
(682,200,o),
(650,200,qs),
(624,200,o),
(614,209,qs),
(607,214,o),
(600,236,o),
(600,253,qs),
(600,278,o),
(591,297,o),
(573,300,o),
(548,300,qs),
(527,300,o),
(511,303,o),
(500,321,o),
(500,344,qs),
(500,372,o),
(503,385,qs),
(507,396,o),
(522,401,o),
(540,400,qs),
(551,400,ls),
(577,398,o),
(599,408,o),
(600,431,qs),
(601,464,o),
(621,500,o),
(649,500,qs),
(672,500,o),
(691,503,o),
(700,515,o),
(700,529,qs),
(700,680,ls),
(700,693,o),
(672,701,o),
(647,700,qs),
(634,700,ls),
(616,700,o),
(600,694,o),
(600,680,qs),
(600,547,ls),
(600,542,o),
(600,533,o),
(599,528,qs),
(598,519,o),
(590,507,o),
(574,500,o),
(561,500,qs),
(527,500,o),
(501,494,o),
(500,482,qs),
(500,478,o),
(500,473,o),
(500,469,qs),
(500,437,o),
(489,400,o),
(466,400,qs),
(331,400,ls),
(321,400,o),
(307,404,o),
(304,413,qs),
(300,421,o),
(300,440,qs),
(301,476,o),
(293,500,o),
(273,500,qs),
(262,500,o),
(237,501,o),
(217,508,o),
(210,516,qs),
(201,528,o),
(201,553,qs),
(201,676,ls),
(201,693,o),
(192,700,o),
(180,700,qs)
);
}
);
width = 800;
},
{
layerId = "B9A38041-4120-40BB-8A36-A48F98B8CF9F";
shapes = (
{
closed = 1;
nodes = (
(100,700,l),
(100,700,l),
(100,691,o),
(100,682,o),
(100,672,qs),
(100,500,l),
(101,500,ls),
(123,500,o),
(146,500,o),
(169,500,qs),
(196,500,o),
(225,499,o),
(226,497,o),
(219,495,qs),
(213,493,o),
(200,488,o),
(200,484,qs),
(200,468,ls),
(200,446,o),
(200,423,o),
(200,400,q),
(265,399,o),
(336,397,o),
(339,394,o),
(326,392,qs),
(317,391,o),
(301,387,o),
(301,384,qs),
(301,361,o),
(287,324,o),
(242,299,o),
(199,300,q),
(199,293,o),
(199,287,o),
(199,280,o),
(199,273,qs),
(198,223,o),
(197,173,q),
(197,187,o),
(140,200,o),
(100,200,q),
(100,0,l),
(116,0,o),
(132,0,o),
(149,0,qs),
(157,0,ls),
(171,0,o),
(185,0,o),
(200,0,q),
(202,296,l),
(223,264,o),
(245,233,o),
(267,200,q),
(278,200,ls),
(285,200,o),
(291,200,o),
(298,200,o),
(304,200,q),
(305,246,o),
(305,293,o),
(306,339,o),
(306,385,q),
(496,385,l),
(496,380,ls),
(496,321,o),
(496,261,o),
(496,200,q),
(497,200,ls),
(510,200,o),
(522,200,o),
(535,200,q),
(555,232,o),
(576,264,o),
(597,297,q),
(597,0,l),
(608,0,o),
(619,0,o),
(629,0,o),
(640,0,qs),
(653,0,l),
(662,0,ls),
(672,0,o),
(681,0,o),
(691,0,o),
(700,0,q),
(700,200,l),
(678,200,o),
(655,200,o),
(632,200,qs),
(616,200,o),
(604,174,qs),
(601,169,o),
(600,176,o),
(600,189,qs),
(600,217,o),
(600,245,o),
(600,272,o),
(600,300,q),
(550,300,o),
(517,305,o),
(500,341,o),
(500,387,qs),
(500,389,o),
(476,391,qs),
(458,394,o),
(463,396,o),
(513,398,qs),
(525,398,ls),
(550,399,o),
(575,399,o),
(600,400,q),
(600,426,o),
(600,451,o),
(600,478,qs),
(600,482,o),
(598,486,o),
(581,493,o),
(566,498,q),
(700,499,l),
(700,565,o),
(699,632,o),
(699,700,q),
(691,700,ls),
(661,700,o),
(631,700,o),
(600,700,q),
(600,521,ls),
(600,518,o),
(607,512,o),
(610,510,qs),
(616,506,o),
(610,503,o),
(552,501,o),
(500,500,q),
(500,475,o),
(499,449,o),
(499,423,qs),
(499,419,o),
(520,411,o),
(530,408,qs),
(545,404,o),
(542,401,o),
(510,401,qs),
(329,401,ls),
(274,401,o),
(264,406,o),
(282,411,qs),
(300,415,o),
(300,418,qs),
(300,446,o),
(300,475,o),
(300,504,q),
(244,503,o),
(182,505,o),
(177,509,o),
(186,513,qs),
(201,521,o),
(201,525,qs),
(201,676,ls),
(201,684,o),
(201,692,o),
(201,700,q)
);
}
);
width = 800;
}
);
note = X;
unicode = (88,120);
},
{
glyphname = Y;
lastChange = "2025-10-01 15:58:07 +0000";
layers = (
{
layerId = m01;
shapes = (
{
closed = 1;
nodes = (
(142,700,ls),
(118,700,o),
(104,698,o),
(100,686,o),
(100,667,qs),
(100,440,ls),
(100,419,o),
(104,403,o),
(114,400,o),
(128,400,qs),
(137,400,ls),
(149,400,o),
(172,397,o),
(180,394,qs),
(190,389,o),
(200,373,o),
(200,360,qs),
(200,331,o),
(207,307,o),
(226,300,o),
(247,300,qs),
(257,300,ls),
(277,300,o),
(292,297,o),
(300,284,o),
(300,267,qs),
(300,48,ls),
(300,24,o),
(309,4,o),
(327,0,o),
(351,0,qs),
(380,0,o),
(395,4,o),
(400,24,o),
(400,58,qs),
(400,266,ls),
(400,289,o),
(425,301,o),
(447,300,qs),
(454,300,ls),
(500,300,o),
(500,342,qs),
(500,363,o),
(501,371,qs),
(503,385,o),
(516,400,o),
(531,400,qs),
(565,400,o),
(590,404,o),
(600,421,o),
(600,443,qs),
(600,670,ls),
(600,690,o),
(578,700,o),
(549,700,qs),
(527,700,o),
(511,698,o),
(500,686,o),
(500,672,qs),
(500,437,l),
(487,413,o),
(464,400,o),
(442,400,qs),
(418,400,o),
(400,389,o),
(400,366,qs),
(400,332,o),
(396,309,o),
(375,299,o),
(348,300,qs),
(323,301,o),
(307,305,o),
(300,329,o),
(300,361,qs),
(300,380,o),
(294,396,o),
(281,400,o),
(266,400,qs),
(252,400,ls),
(249,400,o),
(245,400,o),
(242,400,qs),
(227,400,o),
(210,405,o),
(200,428,o),
(200,453,qs),
(200,668,ls),
(200,691,o),
(188,700,o),
(173,700,qs)
);
}
);
width = 800;
},
{
layerId = "B9A38041-4120-40BB-8A36-A48F98B8CF9F";
shapes = (
{
closed = 1;
nodes = (
(100,700,l),
(100,692,o),
(100,684,o),
(100,675,o),
(100,667,qs),
(100,400,l),
(117,400,o),
(134,400,o),
(151,400,o),
(168,400,qs),
(178,400,ls),
(182,400,o),
(190,418,o),
(193,427,qs),
(197,438,o),
(200,440,o),
(200,428,qs),
(200,396,o),
(200,364,o),
(200,332,o),
(200,300,q),
(202,302,ls),
(226,326,o),
(250,350,o),
(273,373,o),
(297,397,q),
(297,0,l),
(311,0,o),
(324,0,o),
(338,0,o),
(351,0,qs),
(364,0,o),
(377,0,o),
(390,0,o),
(403,0,q),
(403,396,l),
(434,365,o),
(465,335,o),
(497,303,qs),
(500,300,l),
(500,378,o),
(500,455,qs),
(500,464,o),
(502,457,q),
(504,438,o),
(519,400,o),
(531,400,qs),
(548,400,o),
(566,400,o),
(583,400,o),
(600,400,q),
(600,700,l),
(583,700,o),
(566,700,o),
(549,700,qs),
(536,700,o),
(523,700,o),
(509,700,o),
(496,700,q),
(493,354,l),
(492,373,o),
(477,400,o),
(464,400,qs),
(443,400,o),
(422,400,o),
(400,400,q),
(400,345,o),
(394,307,o),
(377,300,o),
(348,300,qs),
(322,300,o),
(306,307,o),
(300,345,o),
(300,400,q),
(289,400,o),
(279,400,o),
(268,400,o),
(257,400,qs),
(243,400,ls),
(231,400,o),
(216,383,o),
(209,370,qs),
(207,366,o),
(204,362,o),
(203,375,o),
(203,387,qs),
(202,668,ls),
(202,679,o),
(202,689,o),
(202,700,q)
);
}
);
width = 800;
}
);
note = Y;
unicode = (89,121);
},
{
glyphname = Z;
lastChange = "2025-10-01 15:58:07 +0000";
layers = (
{
layerId = m01;
shapes = (
{
closed = 1;
nodes = (
(158,700,l),
(146,700,ls),
(124,700,o),
(107,696,o),
(100,676,o),
(100,652,qs),
(100,626,o),
(104,605,o),
(114,600,o),
(127,600,qs),
(459,600,ls),
(477,600,o),
(490,602,o),
(500,616,o),
(500,632,qs),
(500,675,o),
(492,700,o),
(476,700,qs)
);
},
{
closed = 1;
nodes = (
(643,700,ls),
(619,700,o),
(605,698,o),
(600,688,o),
(600,672,qs),
(600,550,ls),
(600,521,o),
(579,500,o),
(550,500,qs),
(527,500,o),
(508,497,o),
(500,482,o),
(500,464,qs),
(500,434,o),
(476,400,o),
(448,400,qs),
(425,400,o),
(408,397,o),
(400,383,o),
(400,366,qs),
(400,337,o),
(379,300,o),
(351,300,qs),
(327,300,o),
(308,297,o),
(300,283,o),
(300,266,qs),
(300,238,o),
(276,200,o),
(253,200,qs),
(240,200,ls),
(218,201,o),
(200,193,o),
(200,177,qs),
(200,160,o),
(192,125,o),
(171,100,o),
(154,100,qs),
(142,100,ls),
(121,100,o),
(106,97,o),
(100,80,o),
(100,58,qs),
(100,24,o),
(105,3,o),
(120,0,o),
(150,0,qs),
(178,0,o),
(194,2,o),
(200,15,o),
(200,34,qs),
(200,46,o),
(204,68,o),
(208,77,qs),
(220,100,o),
(248,100,qs),
(278,100,o),
(296,103,o),
(301,116,o),
(300,136,qs),
(300,153,ls),
(300,173,o),
(308,193,o),
(328,200,o),
(348,200,qs),
(379,200,o),
(400,215,o),
(400,242,qs),
(400,263,o),
(408,287,o),
(432,300,o),
(455,300,qs),
(479,300,o),
(494,305,o),
(499,328,o),
(500,361,qs),
(500,382,o),
(522,400,o),
(547,400,qs),
(560,400,ls),
(576,399,o),
(591,403,o),
(600,420,o),
(600,440,qs),
(600,467,o),
(610,482,qs),
(623,500,o),
(652,500,qs),
(660,500,ls),
(681,499,o),
(700,512,o),
(700,539,qs),
(700,675,ls),
(700,692,o),
(693,700,o),
(683,700,qs)
);
},
{
closed = 1;
nodes = (
(341,99,ls),
(320,100,o),
(305,96,o),
(300,79,o),
(300,56,qs),
(300,43,ls),
(300,22,o),
(303,6,o),
(315,0,o),
(331,0,qs),
(675,0,ls),
(691,-1,o),
(700,19,o),
(700,43,qs),
(700,52,ls),
(700,77,o),
(692,100,o),
(673,100,qs)
);
}
);
width = 800;
},
{
layerId = "B9A38041-4120-40BB-8A36-A48F98B8CF9F";
shapes = (
{
closed = 1;
nodes = (
(100,700,l),
(100,700,l),
(100,688,o),
(100,676,o),
(100,664,o),
(100,652,qs),
(100,639,o),
(100,626,o),
(100,613,o),
(100,600,q),
(500,600,l),
(500,608,o),
(500,616,o),
(500,624,o),
(500,632,qs),
(500,654,o),
(500,677,o),
(500,700,q)
);
},
{
closed = 1;
nodes = (
(600,700,l),
(600,693,o),
(600,686,o),
(600,679,o),
(600,672,qs),
(600,406,l),
(567,437,o),
(534,468,o),
(500,500,q),
(500,451,o),
(500,403,o),
(500,354,o),
(500,305,q),
(467,336,o),
(434,368,o),
(400,400,q),
(400,367,o),
(400,333,o),
(400,300,o),
(400,266,qs),
(400,264,o),
(389,300,o),
(365,300,qs),
(349,300,o),
(333,300,o),
(316,300,o),
(300,300,q),
(300,235,o),
(300,170,o),
(300,103,q),
(295,108,ls),
(264,138,o),
(232,169,o),
(200,200,q),
(200,160,o),
(183,118,o),
(141,100,o),
(100,100,q),
(100,98,ls),
(100,74,o),
(100,49,o),
(100,25,o),
(100,0,q),
(125,0,o),
(151,0,o),
(176,0,o),
(201,0,q),
(201,49,o),
(201,97,o),
(201,146,o),
(201,194,qs),
(201,197,o),
(212,168,o),
(218,150,qs),
(234,100,o),
(236,100,qs),
(253,100,o),
(269,100,o),
(286,100,o),
(302,100,q),
(302,100,l),
(302,150,o),
(313,193,o),
(329,200,o),
(348,200,qs),
(365,200,o),
(382,200,o),
(400,200,q),
(400,218,o),
(436,266,o),
(485,300,o),
(503,300,q),
(503,314,o),
(503,347,o),
(503,382,o),
(503,400,q),
(537,400,o),
(570,400,o),
(605,400,q),
(605,404,ls),
(605,432,o),
(605,461,o),
(604,489,o),
(604,517,qs),
(604,538,o),
(605,532,qs),
(613,500,o),
(629,500,qs),
(637,500,ls),
(658,500,o),
(679,500,o),
(700,500,q),
(700,675,ls),
(700,683,o),
(700,692,o),
(700,700,q)
);
},
{
closed = 1;
nodes = (
(307,100,l),
(307,75,o),
(307,50,o),
(307,25,o),
(307,0,q),
(307,0,l),
(313,0,o),
(319,0,o),
(325,0,o),
(331,0,qs),
(700,0,l),
(700,14,o),
(700,28,o),
(700,43,qs),
(700,52,ls),
(700,68,o),
(700,84,o),
(700,100,q)
);
}
);
width = 800;
}
);
note = Z;
unicode = (90,122);
},
{
glyphname = one;
layers = (
{
layerId = m01;
shapes = (
{
closed = 1;
nodes = (
(248,700,ls),
(227,700,o),
(209,696,o),
(200,681,o),
(200,662,qs),
(201,642,o),
(197,618,o),
(184,603,o),
(169,601,q),
(166,600,o),
(158,600,qs),
(141,600,ls),
(120,601,o),
(105,598,o),
(100,585,o),
(100,568,qs),
(100,547,ls),
(99,521,o),
(102,504,o),
(115,500,o),
(134,500,qs),
(269,500,ls),
(289,499,o),
(299,511,o),
(300,527,qs),
(300,535,ls),
(300,539,o),
(300,544,o),
(300,548,qs),
(300,573,o),
(309,600,o),
(327,600,qs),
(456,600,ls),
(469,600,o),
(488,599,o),
(497,588,o),
(499,575,qs),
(500,567,o),
(500,545,qs),
(500,153,ls),
(500,149,o),
(500,146,o),
(500,142,qs),
(501,125,o),
(496,109,o),
(474,100,o),
(449,100,qs),
(159,100,ls),
(129,100,o),
(107,98,o),
(100,89,o),
(100,78,qs),
(100,24,ls),
(100,6,o),
(107,0,o),
(122,0,qs),
(131,0,l),
(658,0,ls),
(686,0,o),
(700,8,o),
(700,26,qs),
(700,45,ls),
(700,76,o),
(697,95,o),
(684,100,o),
(665,100,qs),
(651,100,o),
(624,102,o),
(615,106,qs),
(608,109,o),
(600,122,o),
(600,131,qs),
(600,671,ls),
(600,688,o),
(583,700,o),
(561,700,qs)
);
}
);
width = 800;
},
{
layerId = "B9A38041-4120-40BB-8A36-A48F98B8CF9F";
shapes = (
{
closed = 1;
nodes = (
(299,700,l),
(299,691,o),
(300,681,o),
(300,672,o),
(300,662,qs),
(300,632,o),
(276,605,o),
(240,599,o),
(213,600,qs),
(207,600,o),
(200,600,q),
(200,599,ls),
(200,591,o),
(200,584,o),
(200,576,o),
(200,568,qs),
(200,547,ls),
(200,535,o),
(200,524,o),
(200,512,o),
(200,500,q),
(400,500,l),
(400,555,o),
(400,611,o),
(400,668,qs),
(400,680,ls),
(400,682,o),
(401,677,o),
(402,673,qs),
(407,646,o),
(423,600,o),
(434,600,qs),
(564,600,ls),
(574,600,o),
(589,628,o),
(597,664,o),
(599,676,qs),
(600,681,o),
(600,680,qs),
(600,26,ls),
(600,24,o),
(599,27,o),
(598,30,qs),
(595,44,o),
(584,75,o),
(563,100,o),
(549,100,qs),
(200,100,l),
(200,95,o),
(200,89,o),
(200,84,o),
(200,78,qs),
(200,0,l),
(207,0,o),
(215,0,o),
(222,0,qs),
(231,0,l),
(800,0,l),
(800,33,o),
(800,66,o),
(800,100,q),
(799,100,ls),
(785,100,o),
(770,100,o),
(756,100,o),
(741,100,qs),
(731,100,o),
(716,73,o),
(708,50,qs),
(705,41,o),
(700,34,o),
(700,43,qs),
(700,671,ls),
(700,681,o),
(700,690,o),
(700,700,q)
);
}
);
width = 1000;
}
);
note = one;
unicode = 49;
},
{
glyphname = two;
layers = (
{
layerId = m01;
shapes = (
{
closed = 1;
nodes = (
(254,700,l),
(231,700,ls),
(211,700,o),
(200,691,o),
(200,669,qs),
(200,663,o),
(200,656,qs),
(201,636,o),
(198,614,o),
(183,600,o),
(167,600,qs),
(129,600,o),
(108,597,o),
(100,577,o),
(100,547,qs),
(100,521,o),
(102,506,o),
(113,500,o),
(128,500,qs),
(269,500,ls),
(291,500,o),
(300,509,o),
(300,524,qs),
(300,585,ls),
(300,589,o),
(301,591,qs),
(303,596,o),
(317,600,o),
(329,600,qs),
(551,600,ls),
(580,600,o),
(600,591,o),
(600,570,qs),
(600,529,o),
(597,504,o),
(587,500,o),
(568,500,qs),
(538,500,o),
(513,496,o),
(500,479,o),
(500,458,qs),
(500,424,o),
(484,400,o),
(457,400,qs),
(426,400,o),
(407,397,o),
(400,382,o),
(400,361,qs),
(400,340,o),
(396,317,o),
(383,303,o),
(369,301,qs),
(365,300,o),
(357,300,qs),
(329,300,o),
(307,296,o),
(300,282,o),
(300,264,qs),
(300,231,o),
(286,200,o),
(257,200,qs),
(221,200,o),
(200,191,o),
(200,169,qs),
(200,143,o),
(173,101,o),
(156,100,qs),
(124,100,ls),
(112,100,o),
(100,85,o),
(100,62,qs),
(100,43,ls),
(99,14,o),
(106,0,o),
(122,0,qs),
(674,0,ls),
(692,0,o),
(699,10,o),
(700,27,qs),
(700,78,ls),
(700,93,o),
(686,101,o),
(671,100,qs),
(337,100,ls),
(316,100,o),
(300,112,o),
(300,135,qs),
(300,140,o),
(300,144,qs),
(299,172,o),
(312,200,o),
(338,200,qs),
(353,200,ls),
(381,199,o),
(400,208,o),
(400,227,qs),
(400,279,l),
(399,289,o),
(409,296,q),
(417,300,o),
(425,300,qs),
(478,300,ls),
(492,300,o),
(500,312,o),
(500,328,qs),
(500,375,l),
(499,382,o),
(503,391,o),
(506,394,qs),
(511,399,o),
(528,400,o),
(536,400,qs),
(579,400,ls),
(594,400,o),
(600,412,o),
(600,430,qs),
(600,472,ls),
(599,484,o),
(628,500,o),
(645,500,qs),
(676,500,o),
(697,504,o),
(700,516,o),
(700,538,qs),
(700,676,ls),
(700,692,o),
(671,700,o),
(635,700,qs)
);
}
);
width = 800;
},
{
layerId = "B9A38041-4120-40BB-8A36-A48F98B8CF9F";
shapes = (
{
closed = 1;
nodes = (
(300,700,l),
(300,698,ls),
(300,688,o),
(300,679,o),
(300,669,qs),
(300,652,o),
(299,645,qs),
(297,623,o),
(277,603,o),
(239,599,o),
(200,600,q),
(200,587,o),
(200,574,o),
(200,560,o),
(200,547,qs),
(200,535,o),
(200,524,o),
(200,512,o),
(200,500,q),
(400,500,l),
(400,508,o),
(400,516,o),
(400,524,qs),
(400,694,l),
(401,692,o),
(401,689,qs),
(405,661,o),
(421,600,o),
(429,600,qs),
(660,600,ls),
(673,600,o),
(694,655,o),
(700,694,q),
(699,597,o),
(688,523,o),
(650,500,o),
(600,500,q),
(600,490,o),
(600,479,o),
(600,469,o),
(600,458,qs),
(600,424,o),
(548,400,o),
(500,400,q),
(500,390,o),
(500,381,o),
(500,371,o),
(500,361,qs),
(500,332,o),
(475,305,o),
(440,299,o),
(413,300,qs),
(407,300,o),
(400,300,q),
(400,291,o),
(400,282,o),
(400,273,o),
(400,264,qs),
(400,230,o),
(336,200,o),
(300,200,q),
(300,190,o),
(300,180,o),
(300,169,qs),
(300,116,o),
(300,63,o),
(300,8,q),
(200,100,l),
(200,87,o),
(200,75,o),
(200,62,qs),
(200,43,ls),
(200,29,o),
(200,15,o),
(200,0,q),
(800,0,l),
(800,4,o),
(800,18,o),
(800,27,qs),
(800,100,l),
(792,70,o),
(785,40,o),
(777,9,q),
(400,9,l),
(400,68,o),
(400,128,o),
(400,189,qs),
(400,192,o),
(386,197,qs),
(380,199,o),
(387,200,o),
(400,200,qs),
(417,200,ls),
(444,200,o),
(472,200,o),
(500,200,q),
(500,290,ls),
(500,296,o),
(482,299,qs),
(479,300,o),
(485,300,qs),
(578,300,ls),
(585,300,o),
(593,300,o),
(600,300,q),
(600,394,ls),
(600,395,o),
(596,397,o),
(594,397,q),
(589,399,o),
(598,400,o),
(613,400,qs),
(679,400,ls),
(686,400,o),
(693,400,o),
(700,400,q),
(700,556,l),
(703,533,o),
(715,500,o),
(725,500,qs),
(744,500,o),
(763,500,o),
(781,500,o),
(800,500,q),
(800,676,ls),
(800,684,o),
(800,692,o),
(800,700,q)
);
}
);
width = 1000;
}
);
note = two;
unicode = 50;
},
{
glyphname = three;
layers = (
{
layerId = m01;
shapes = (
{
closed = 1;
nodes = (
(158,700,ls),
(123,700,o),
(100,690,o),
(100,673,qs),
(100,555,ls),
(100,522,o),
(105,500,o),
(119,500,qs),
(181,500,ls),
(193,499,o),
(199,513,o),
(199,528,qs),
(199,572,ls),
(199,587,o),
(220,601,o),
(236,600,qs),
(559,600,ls),
(579,600,o),
(599,572,o),
(600,556,qs),
(600,451,ls),
(600,436,o),
(577,401,o),
(556,400,qs),
(329,400,ls),
(313,400,o),
(302,394,o),
(300,374,o),
(300,344,qs),
(300,319,o),
(303,304,o),
(316,300,o),
(337,300,qs),
(557,300,ls),
(591,300,o),
(598,276,qs),
(599,271,o),
(600,262,o),
(600,257,qs),
(600,143,ls),
(600,120,o),
(585,100,o),
(564,100,qs),
(230,100,ls),
(209,100,o),
(200,117,o),
(200,146,qs),
(200,178,o),
(197,195,o),
(180,200,o),
(151,200,qs),
(140,200,ls),
(116,200,o),
(100,193,o),
(100,177,qs),
(100,49,ls),
(100,18,o),
(109,1,o),
(129,0,qs),
(672,0,ls),
(692,0,o),
(700,19,o),
(700,45,qs),
(700,612,ls),
(700,648,o),
(682,700,o),
(645,700,qs)
);
}
);
width = 800;
},
{
layerId = "B9A38041-4120-40BB-8A36-A48F98B8CF9F";
shapes = (
{
closed = 1;
nodes = (
(200,700,l),
(200,691,o),
(200,682,o),
(200,673,qs),
(200,500,l),
(206,500,o),
(213,500,o),
(219,500,qs),
(300,500,l),
(300,509,o),
(300,518,o),
(300,528,qs),
(300,692,l),
(310,692,o),
(320,692,o),
(330,692,qs),
(650,692,ls),
(667,692,o),
(683,692,o),
(700,692,q),
(700,361,l),
(698,378,o),
(680,401,o),
(664,400,qs),
(399,400,l),
(399,375,o),
(400,350,o),
(400,325,o),
(400,300,q),
(409,300,o),
(419,300,o),
(428,300,o),
(437,300,qs),
(664,300,ls),
(681,300,o),
(698,335,qs),
(699,337,o),
(700,340,o),
(700,339,qs),
(699,6,l),
(693,6,o),
(686,6,o),
(680,6,qs),
(207,6,l),
(246,45,o),
(300,116,o),
(300,133,qs),
(300,150,o),
(300,167,o),
(300,183,o),
(300,200,q),
(288,200,ls),
(259,200,o),
(230,200,o),
(200,200,q),
(200,0,l),
(210,0,o),
(219,0,o),
(229,0,qs),
(772,0,ls),
(781,0,o),
(790,0,o),
(800,0,q),
(800,612,ls),
(800,641,o),
(800,670,o),
(800,700,q)
);
}
);
width = 1000;
}
);
note = three;
unicode = 51;
},
{
glyphname = four;
layers = (
{
layerId = m01;
shapes = (
{
closed = 1;
nodes = (
(548,700,ls),
(516,700,o),
(500,693,o),
(500,676,qs),
(500,625,ls),
(500,610,o),
(480,600,o),
(461,600,qs),
(433,600,o),
(401,591,o),
(400,572,qs),
(400,566,o),
(400,560,o),
(400,554,qs),
(400,527,o),
(391,501,o),
(373,500,qs),
(359,500,ls),
(329,500,o),
(300,490,o),
(300,469,qs),
(300,453,ls),
(301,425,o),
(291,400,o),
(270,400,qs),
(254,400,ls),
(221,400,o),
(200,394,o),
(200,379,qs),
(200,228,ls),
(200,213,o),
(205,201,o),
(216,201,qs),
(568,201,ls),
(578,201,o),
(584,198,qs),
(592,194,o),
(600,178,o),
(600,165,qs),
(600,36,ls),
(600,17,o),
(608,1,o),
(617,0,q),
(681,0,ls),
(694,-1,o),
(700,13,o),
(700,28,qs),
(700,32,l),
(700,168,ls),
(700,182,o),
(718,201,o),
(733,201,qs),
(748,201,ls),
(770,200,o),
(789,209,o),
(800,251,o),
(800,300,qs),
(800,356,o),
(788,400,o),
(761,400,qs),
(753,400,ls),
(727,399,o),
(700,415,o),
(700,447,qs),
(700,667,ls),
(700,687,o),
(685,701,o),
(667,700,qs)
);
},
{
closed = 1;
nodes = (
(577,601,ls),
(590,601,o),
(600,591,o),
(600,577,qs),
(601,326,ls),
(601,313,o),
(589,299,o),
(570,299,qs),
(428,299,ls),
(400,299,o),
(400,316,qs),
(401,477,ls),
(401,495,o),
(426,503,o),
(453,502,q),
(458,501,o),
(470,501,o),
(475,501,qs),
(493,502,o),
(502,522,o),
(501,544,qs),
(501,561,ls),
(502,585,o),
(511,600,o),
(527,600,qs)
);
}
);
width = 1000;
},
{
layerId = "B9A38041-4120-40BB-8A36-A48F98B8CF9F";
shapes = (
{
closed = 1;
nodes = (
(500,700,l),
(500,692,o),
(500,684,o),
(500,676,qs),
(500,524,ls),
(500,518,o),
(442,563,o),
(400,600,q),
(400,566,o),
(400,532,o),
(400,497,qs),
(399,469,o),
(395,465,o),
(390,476,qs),
(382,489,o),
(373,500,o),
(367,500,qs),
(353,500,ls),
(336,500,o),
(318,500,o),
(300,500,q),
(300,483,ls),
(301,444,o),
(292,400,o),
(270,400,qs),
(254,400,ls),
(236,400,o),
(218,400,o),
(200,400,q),
(200,200,l),
(205,200,o),
(211,200,o),
(216,200,qs),
(666,200,ls),
(674,200,o),
(660,197,qs),
(634,190,o),
(600,176,o),
(600,165,qs),
(600,0,l),
(603,0,o),
(612,0,o),
(617,0,qs),
(681,0,ls),
(687,0,o),
(694,0,o),
(700,0,q),
(700,0,l),
(700,200,l),
(733,200,o),
(766,200,o),
(800,200,q),
(800,200,l),
(800,225,o),
(800,250,o),
(800,275,o),
(800,300,qs),
(800,333,o),
(800,366,o),
(800,400,q),
(798,396,ls),
(766,336,o),
(733,276,o),
(700,214,q),
(700,667,ls),
(700,678,o),
(700,689,o),
(700,700,q)
);
},
{
closed = 1;
nodes = (
(600,600,l),
(600,592,o),
(600,585,o),
(600,577,qs),
(601,326,ls),
(601,287,o),
(600,247,o),
(600,207,q),
(428,207,ls),
(414,207,o),
(400,207,q),
(404,503,ls),
(404,514,o),
(408,516,o),
(417,513,qs),
(436,507,o),
(472,500,o),
(502,501,q),
(502,519,o),
(502,537,o),
(502,556,qs),
(502,561,ls),
(505,617,o),
(514,694,o),
(518,694,q)
);
}
);
width = 1000;
}
);
note = four;
unicode = 52;
},
{
glyphname = five;
layers = (
{
layerId = m01;
shapes = (
{
closed = 1;
nodes = (
(248,700,ls),
(219,701,o),
(200,687,o),
(200,668,qs),
(200,537,ls),
(200,517,o),
(210,501,o),
(225,500,qs),
(274,500,ls),
(282,500,o),
(292,497,o),
(295,494,qs),
(298,490,o),
(300,470,o),
(300,458,qs),
(300,339,ls),
(299,318,o),
(301,305,o),
(310,300,o),
(323,300,qs),
(376,300,ls),
(390,300,o),
(398,304,o),
(400,317,o),
(400,340,qs),
(400,365,o),
(402,375,qs),
(405,387,o),
(419,400,o),
(432,400,qs),
(652,400,ls),
(674,400,o),
(700,383,o),
(700,365,qs),
(700,338,o),
(702,307,o),
(709,300,o),
(719,300,qs),
(727,300,ls),
(758,301,o),
(800,288,o),
(800,263,qs),
(800,144,ls),
(800,125,o),
(777,100,o),
(757,100,qs),
(325,100,ls),
(311,100,o),
(305,114,qs),
(300,124,o),
(300,151,qs),
(300,179,o),
(295,197,o),
(277,200,o),
(246,200,qs),
(223,200,o),
(206,197,o),
(200,184,o),
(200,168,qs),
(200,44,ls),
(200,22,o),
(205,4,o),
(215,0,o),
(226,0,qs),
(868,0,ls),
(884,0,o),
(895,3,o),
(900,20,o),
(900,42,qs),
(900,273,ls),
(900,292,o),
(883,300,o),
(862,300,qs),
(843,300,o),
(820,304,o),
(800,328,o),
(800,354,qs),
(800,378,o),
(794,396,o),
(778,400,o),
(756,400,qs),
(729,400,o),
(698,412,o),
(699,437,qs),
(700,469,o),
(694,494,o),
(681,500,o),
(663,500,qs),
(415,500,l),
(324,500,l),
(314,498,o),
(309,503,q),
(300,509,o),
(300,522,qs),
(300,573,ls),
(300,590,o),
(304,595,qs),
(308,600,o),
(321,600,qs),
(763,600,l),
(879,600,ls),
(894,600,o),
(899,610,o),
(900,634,qs),
(900,683,ls),
(900,694,o),
(886,699,o),
(871,699,qs)
);
}
);
width = 1000;
},
{
layerId = "B9A38041-4120-40BB-8A36-A48F98B8CF9F";
shapes = (
{
closed = 1;
nodes = (
(200,700,l),
(200,689,o),
(200,679,o),
(200,668,qs),
(200,500,l),
(203,500,o),
(216,500,o),
(225,500,qs),
(324,500,ls),
(330,500,o),
(331,499,o),
(328,498,qs),
(317,494,o),
(300,483,o),
(300,474,qs),
(300,300,l),
(306,300,o),
(312,300,o),
(317,300,o),
(323,300,qs),
(400,300,l),
(400,344,o),
(400,389,o),
(400,433,o),
(400,477,qs),
(400,482,o),
(396,494,qs),
(394,498,o),
(397,500,o),
(408,500,qs),
(694,500,l),
(694,455,o),
(694,411,o),
(694,365,qs),
(694,349,o),
(694,333,o),
(694,316,o),
(694,300,q),
(696,302,ls),
(730,333,o),
(763,365,o),
(798,397,q),
(800,144,ls),
(799,98,o),
(799,53,o),
(798,6,q),
(316,6,ls),
(307,6,o),
(304,5,qs),
(300,4,o),
(300,6,qs),
(300,55,o),
(300,103,o),
(300,152,o),
(300,200,q),
(275,200,o),
(250,200,o),
(225,200,o),
(200,200,q),
(200,44,ls),
(200,33,o),
(200,22,o),
(200,11,o),
(200,0,q),
(900,0,l),
(900,11,o),
(900,21,o),
(900,32,o),
(900,42,qs),
(900,273,ls),
(900,282,o),
(900,291,o),
(900,300,q),
(876,300,o),
(837,304,o),
(800,328,o),
(800,354,qs),
(800,366,o),
(800,377,o),
(800,389,o),
(800,400,q),
(761,400,o),
(699,412,o),
(700,437,qs),
(700,457,o),
(700,487,o),
(700,502,o),
(700,506,q),
(415,506,l),
(275,506,ls),
(268,506,o),
(274,508,qs),
(300,515,o),
(300,521,qs),
(299,694,ls),
(299,697,o),
(302,695,qs),
(308,692,o),
(314,692,qs),
(879,690,l),
(879,600,l),
(891,600,o),
(900,601,o),
(900,600,qs),
(900,700,l),
(890,700,o),
(881,700,o),
(871,700,qs)
);
}
);
width = 1000;
}
);
note = five;
unicode = 53;
},
{
glyphname = six;
layers = (
{
layerId = m01;
shapes = (
{
closed = 1;
nodes = (
(341,700,l),
(331,700,ls),
(311,700,o),
(300,693,o),
(300,674,qs),
(300,650,o),
(299,616,o),
(295,609,qs),
(292,604,o),
(282,600,o),
(273,600,qs),
(225,600,ls),
(212,600,o),
(200,587,o),
(200,565,qs),
(200,55,ls),
(200,23,o),
(217,1,o),
(240,0,qs),
(770,0,ls),
(800,0,o),
(800,47,qs),
(800,267,ls),
(799,288,o),
(776,300,o),
(750,300,qs),
(738,300,o),
(716,311,o),
(709,320,qs),
(699,333,o),
(699,349,qs),
(699,369,o),
(696,387,o),
(679,400,o),
(659,400,qs),
(331,400,ls),
(314,400,o),
(300,420,o),
(300,443,qs),
(300,564,ls),
(300,577,o),
(324,600,o),
(340,600,qs),
(674,600,ls),
(690,600,o),
(700,586,o),
(700,567,qs),
(700,555,ls),
(699,529,o),
(707,500,o),
(726,500,qs),
(740,500,ls),
(770,499,o),
(799,509,o),
(800,532,qs),
(800,672,ls),
(800,691,o),
(784,700,o),
(761,700,qs)
);
},
{
closed = 1;
nodes = (
(662,300,ls),
(701,300,o),
(701,269,qs),
(700,139,ls),
(700,119,o),
(687,103,o),
(668,100,q),
(327,100,ls),
(310,100,o),
(301,109,o),
(300,129,qs),
(300,269,ls),
(300,284,o),
(305,296,o),
(324,299,o),
(348,300,qs)
);
}
);
width = 1000;
},
{
layerId = "B9A38041-4120-40BB-8A36-A48F98B8CF9F";
shapes = (
{
closed = 1;
nodes = (
(299,700,l),
(299,698,ls),
(299,668,o),
(300,637,o),
(300,606,qs),
(300,582,o),
(297,577,o),
(292,585,q),
(290,590,o),
(282,600,o),
(278,600,qs),
(200,600,l),
(200,588,o),
(200,577,o),
(200,565,qs),
(200,0,l),
(206,0,o),
(226,0,o),
(240,0,qs),
(770,0,ls),
(785,0,o),
(800,0,q),
(800,300,l),
(776,300,o),
(751,300,o),
(726,300,qs),
(719,300,o),
(710,284,o),
(704,269,q),
(701,257,o),
(701,269,qs),
(701,302,o),
(701,334,o),
(700,367,o),
(700,399,q),
(331,400,ls),
(322,400,o),
(314,400,o),
(305,400,q),
(305,622,ls),
(305,645,o),
(305,669,o),
(305,693,q),
(794,694,l),
(763,663,o),
(732,632,o),
(700,600,q),
(700,587,ls),
(700,558,o),
(700,530,o),
(700,500,q),
(715,500,ls),
(743,500,o),
(771,500,o),
(800,500,q),
(800,672,ls),
(800,681,o),
(800,690,o),
(800,700,q)
);
},
{
closed = 1;
nodes = (
(693,391,l),
(693,330,o),
(693,269,qs),
(692,6,l),
(684,6,o),
(676,5,o),
(667,5,qs),
(305,5,l),
(305,46,o),
(305,87,o),
(305,129,qs),
(305,269,ls),
(305,300,o),
(305,330,o),
(305,361,o),
(305,391,q)
);
}
);
width = 1000;
}
);
note = six;
unicode = 54;
},
{
glyphname = seven;
layers = (
{
layerId = m01;
shapes = (
{
closed = 1;
nodes = (
(234,700,ls),
(212,699,o),
(199,694,o),
(199,681,qs),
(200,542,l),
(200,533,ls),
(201,514,o),
(208,500,o),
(224,500,qs),
(276,500,ls),
(289,499,o),
(300,514,o),
(300,535,qs),
(300,565,o),
(308,600,o),
(323,600,qs),
(665,600,l),
(671,600,ls),
(687,599,o),
(700,592,o),
(700,578,qs),
(700,531,ls),
(700,527,o),
(700,518,o),
(699,515,qs),
(697,507,o),
(687,500,o),
(676,500,qs),
(614,500,ls),
(600,500,o),
(600,469,qs),
(600,461,ls),
(601,435,o),
(593,401,o),
(577,400,qs),
(515,400,ls),
(504,400,o),
(500,390,o),
(500,375,qs),
(500,367,ls),
(500,350,o),
(496,326,o),
(492,318,qs),
(486,308,o),
(467,301,o),
(449,300,qs),
(441,300,ls),
(416,299,o),
(400,292,o),
(400,276,qs),
(400,249,o),
(394,219,o),
(382,204,o),
(372,202,q),
(367,200,o),
(354,200,qs),
(318,200,ls),
(306,200,o),
(300,189,o),
(300,172,qs),
(300,17,ls),
(300,8,o),
(311,0,o),
(329,0,qs),
(367,0,ls),
(386,0,o),
(400,9,o),
(400,18,qs),
(400,178,ls),
(400,188,o),
(419,200,o),
(437,200,qs),
(482,200,ls),
(491,200,o),
(500,211,o),
(500,236,qs),
(500,262,o),
(502,285,o),
(516,300,o),
(532,300,qs),
(582,300,l),
(590,299,o),
(600,320,o),
(600,340,qs),
(600,348,ls),
(600,374,o),
(608,400,o),
(627,400,qs),
(676,400,ls),
(686,400,o),
(700,420,o),
(700,445,qs),
(700,456,ls),
(700,482,o),
(707,500,o),
(721,500,qs),
(783,500,ls),
(791,500,o),
(800,513,o),
(800,536,qs),
(800,574,ls),
(800,587,o),
(785,599,o),
(766,600,qs),
(729,601,o),
(700,617,o),
(700,644,qs),
(700,660,ls),
(701,685,o),
(692,701,o),
(671,700,qs)
);
}
);
width = 1000;
},
{
layerId = "B9A38041-4120-40BB-8A36-A48F98B8CF9F";
shapes = (
{
closed = 1;
nodes = (
(200,700,l),
(200,692,o),
(200,685,o),
(200,677,qs),
(200,500,l),
(204,500,ls),
(236,500,o),
(267,500,o),
(300,500,q),
(207,694,l),
(213,694,o),
(219,694,o),
(225,694,qs),
(257,694,o),
(290,694,o),
(323,694,qs),
(693,692,l),
(693,690,ls),
(693,661,o),
(694,631,o),
(694,601,qs),
(694,429,ls),
(694,426,o),
(693,428,o),
(692,432,qs),
(686,459,o),
(670,500,o),
(655,500,qs),
(600,500,l),
(599,414,o),
(598,328,qs),
(598,327,ls),
(594,359,o),
(583,401,o),
(570,400,qs),
(500,400,l),
(500,357,o),
(500,314,o),
(500,270,qs),
(500,243,ls),
(500,233,o),
(496,238,o),
(493,246,qs),
(483,270,o),
(463,300,o),
(449,300,qs),
(441,300,ls),
(427,300,o),
(414,300,o),
(400,300,q),
(400,244,o),
(397,200,o),
(390,192,o),
(381,196,qs),
(373,200,o),
(367,200,qs),
(300,200,l),
(300,191,o),
(300,182,o),
(300,172,qs),
(300,0,l),
(310,0,o),
(319,0,o),
(329,0,qs),
(367,0,ls),
(378,0,o),
(389,0,o),
(400,0,q),
(400,148,l),
(414,170,o),
(446,200,o),
(452,200,qs),
(504,200,l),
(504,212,o),
(504,224,o),
(504,236,qs),
(504,257,o),
(509,284,o),
(521,300,o),
(532,300,qs),
(600,300,l),
(600,313,o),
(600,326,o),
(600,340,qs),
(600,348,ls),
(600,374,o),
(608,400,o),
(627,400,qs),
(676,400,ls),
(684,400,o),
(692,400,o),
(700,400,q),
(700,411,ls),
(700,454,o),
(707,500,o),
(721,500,qs),
(800,500,l),
(800,512,o),
(800,524,o),
(800,536,qs),
(800,574,ls),
(800,583,o),
(800,591,o),
(800,600,q),
(756,600,o),
(700,618,o),
(700,644,qs),
(700,660,ls),
(700,673,o),
(700,686,o),
(700,700,q)
);
}
);
width = 1000;
}
);
note = seven;
unicode = 55;
},
{
glyphname = eight;
layers = (
{
layerId = m01;
shapes = (
{
closed = 1;
nodes = (
(342,700,l),
(330,700,ls),
(311,700,o),
(299,693,o),
(299,677,qs),
(299,670,ls),
(299,638,o),
(288,600,o),
(264,600,qs),
(232,600,o),
(200,585,o),
(200,566,qs),
(200,433,ls),
(200,413,o),
(212,400,o),
(233,400,qs),
(261,400,o),
(285,398,o),
(291,393,qs),
(296,389,o),
(300,374,o),
(300,360,qs),
(300,330,o),
(293,305,o),
(278,300,o),
(258,300,qs),
(249,300,ls),
(224,300,o),
(207,298,o),
(200,287,o),
(200,274,qs),
(200,34,ls),
(201,14,o),
(210,1,o),
(228,0,qs),
(775,0,l),
(800,-3,o),
(800,50,qs),
(800,262,ls),
(800,300,o),
(754,300,qs),
(749,300,o),
(743,300,qs),
(721,299,o),
(701,310,o),
(700,336,qs),
(699,374,o),
(709,400,o),
(732,400,qs),
(766,400,o),
(790,403,o),
(800,418,o),
(800,438,qs),
(800,576,ls),
(800,587,o),
(781,600,o),
(747,600,qs),
(728,600,o),
(701,622,o),
(701,645,qs),
(701,672,o),
(696,693,o),
(682,699,o),
(665,700,qs)
);
},
{
closed = 1;
nodes = (
(668,600,ls),
(686,600,o),
(700,593,o),
(700,574,qs),
(700,440,ls),
(700,430,o),
(698,413,o),
(695,409,qs),
(692,404,o),
(681,400,o),
(672,400,qs),
(331,400,ls),
(317,400,o),
(304,406,o),
(302,413,qs),
(300,421,o),
(300,426,qs),
(299,572,ls),
(299,590,o),
(312,600,o),
(333,600,qs),
(350,600,l)
);
},
{
closed = 1;
nodes = (
(669,300,ls),
(700,300,o),
(700,272,qs),
(700,131,ls),
(700,113,o),
(689,101,o),
(674,100,qs),
(322,100,ls),
(306,101,o),
(300,112,o),
(300,133,qs),
(300,278,ls),
(300,292,o),
(319,300,o),
(342,300,qs)
);
}
);
width = 1000;
},
{
layerId = "B9A38041-4120-40BB-8A36-A48F98B8CF9F";
shapes = (
{
closed = 1;
nodes = (
(294,700,l),
(289,700,ls),
(260,700,o),
(230,700,o),
(200,700,q),
(200,700,l),
(200,667,o),
(200,634,o),
(200,600,qs),
(200,589,o),
(200,578,o),
(200,566,qs),
(200,400,l),
(211,400,o),
(222,400,o),
(233,400,qs),
(254,400,o),
(280,428,o),
(292,449,qs),
(298,460,o),
(300,456,o),
(300,431,qs),
(300,399,o),
(300,366,o),
(300,334,o),
(300,301,qs),
(300,300,l),
(275,300,o),
(250,300,o),
(225,300,o),
(200,300,q),
(200,0,l),
(209,0,o),
(218,0,o),
(228,0,qs),
(800,0,l),
(800,25,o),
(800,50,qs),
(800,300,l),
(763,300,o),
(726,300,qs),
(712,300,o),
(704,261,qs),
(702,253,o),
(700,254,o),
(700,267,qs),
(700,294,o),
(700,362,o),
(701,395,q),
(726,395,o),
(751,395,o),
(775,395,o),
(800,395,q),
(800,600,ls),
(800,633,o),
(800,666,o),
(800,700,q),
(776,700,o),
(752,700,o),
(728,700,qs),
(723,700,o),
(717,700,o),
(712,700,o),
(706,700,qs)
);
},
{
closed = 1;
nodes = (
(700,693,l),
(700,654,o),
(700,614,o),
(700,574,qs),
(700,424,ls),
(700,419,o),
(715,410,o),
(722,407,qs),
(731,403,o),
(728,400,o),
(707,400,qs),
(331,400,ls),
(319,400,o),
(307,371,o),
(304,354,qs),
(303,350,o),
(303,354,qs),
(304,689,ls),
(304,692,o),
(309,693,o),
(313,693,qs),
(316,693,l)
);
},
{
closed = 1;
nodes = (
(695,395,l),
(696,334,o),
(697,272,qs),
(697,131,ls),
(697,90,o),
(696,50,o),
(696,8,q),
(302,7,l),
(302,16,o),
(302,25,o),
(302,34,qs),
(302,278,ls),
(302,293,o),
(323,394,o),
(327,395,q)
);
}
);
width = 1000;
}
);
note = eight;
unicode = 56;
},
{
glyphname = nine;
layers = (
{
layerId = m01;
shapes = (
{
closed = 1;
nodes = (
(348,700,ls),
(318,701,o),
(300,693,o),
(300,675,qs),
(300,640,o),
(294,611,o),
(274,601,o),
(248,600,qs),
(223,599,o),
(204,593,o),
(200,578,o),
(200,556,qs),
(200,345,ls),
(200,323,o),
(204,305,o),
(216,300,o),
(232,300,qs),
(656,300,l),
(665,301,o),
(681,299,o),
(691,295,o),
(694,291,qs),
(700,285,o),
(700,271,qs),
(700,138,ls),
(701,120,o),
(675,101,o),
(657,100,qs),
(235,99,ls),
(215,100,o),
(200,92,o),
(200,77,qs),
(200,23,ls),
(200,7,o),
(218,0,o),
(240,0,qs),
(780,0,ls),
(793,0,o),
(799,22,o),
(800,53,qs),
(800,65,l),
(800,662,l),
(798,680,o),
(768,702,o),
(746,700,q)
);
},
{
closed = 1;
nodes = (
(675,600,ls),
(700,600,o),
(700,578,qs),
(700,433,ls),
(700,417,o),
(695,403,o),
(685,401,o),
(672,400,q),
(323,400,ls),
(308,400,o),
(300,411,o),
(300,435,qs),
(300,576,ls),
(300,591,o),
(319,600,o),
(340,600,qs)
);
}
);
width = 1000;
},
{
layerId = "B9A38041-4120-40BB-8A36-A48F98B8CF9F";
shapes = (
{
closed = 1;
nodes = (
(300,700,l),
(300,692,o),
(300,684,o),
(300,675,qs),
(300,644,o),
(272,611,o),
(229,600,o),
(200,600,q),
(200,589,o),
(200,578,o),
(200,567,o),
(200,556,qs),
(200,300,l),
(208,300,o),
(216,300,o),
(224,300,o),
(232,300,qs),
(656,300,ls),
(691,301,o),
(729,300,o),
(729,298,o),
(720,295,qs),
(700,290,o),
(700,284,qs),
(700,9,l),
(695,9,o),
(689,9,o),
(684,9,qs),
(235,9,ls),
(223,9,o),
(205,62,o),
(200,100,q),
(200,0,l),
(213,0,o),
(226,0,o),
(240,0,qs),
(780,0,ls),
(787,0,o),
(793,0,o),
(800,0,q),
(800,0,l),
(800,662,ls),
(800,675,o),
(800,687,o),
(800,700,q)
);
},
{
closed = 1;
nodes = (
(793,689,l),
(700,593,o),
(700,578,qs),
(700,433,ls),
(700,401,o),
(699,370,o),
(699,338,o),
(698,306,q),
(304,306,l),
(304,337,o),
(304,368,o),
(304,400,qs),
(304,691,l),
(306,690,o),
(312,689,o),
(316,689,qs)
);
}
);
width = 1000;
}
);
note = nine;
unicode = 57;
},
